<svg width="148" height="148" viewBox="0 0 148 148" fill="none" xmlns="http://www.w3.org/2000/svg">
<path d="M112.848 35.2116C112.278 34.6399 111.6 34.1864 110.854 33.8769C110.108 33.5675 109.309 33.4082 108.501 33.4082C107.693 33.4082 106.894 33.5675 106.148 33.8769C105.402 34.1864 104.724 34.6399 104.153 35.2116L73.9984 65.3049L43.8434 35.1499C43.2725 34.579 42.5947 34.1261 41.8488 33.8171C41.1029 33.5081 40.3034 33.3491 39.496 33.3491C38.6885 33.3491 37.889 33.5081 37.1431 33.8171C36.3972 34.1261 35.7194 34.579 35.1484 35.1499C34.5775 35.7208 34.1246 36.3986 33.8157 37.1446C33.5067 37.8905 33.3477 38.69 33.3477 39.4974C33.3477 40.3048 33.5067 41.1043 33.8157 41.8503C34.1246 42.5962 34.5775 43.274 35.1484 43.8449L65.3034 73.9999L35.1484 104.155C34.5775 104.726 34.1246 105.404 33.8157 106.15C33.5067 106.896 33.3477 107.695 33.3477 108.502C33.3477 109.31 33.5067 110.109 33.8157 110.855C34.1246 111.601 34.5775 112.279 35.1484 112.85C35.7194 113.421 36.3972 113.874 37.1431 114.183C37.889 114.492 38.6885 114.651 39.496 114.651C40.3034 114.651 41.1029 114.492 41.8488 114.183C42.5947 113.874 43.2725 113.421 43.8434 112.85L73.9984 82.6949L104.153 112.85C104.724 113.421 105.402 113.874 106.148 114.183C106.894 114.492 107.694 114.651 108.501 114.651C109.308 114.651 110.108 114.492 110.854 114.183C111.6 113.874 112.278 113.421 112.848 112.85C113.419 112.279 113.872 111.601 114.181 110.855C114.49 110.109 114.649 109.31 114.649 108.502C114.649 107.695 114.49 106.896 114.181 106.15C113.872 105.404 113.419 104.726 112.848 104.155L82.6934 73.9999L112.848 43.8449C115.192 41.5016 115.192 37.5549 112.848 35.2116Z" fill="#767676"/>
</svg>
