<svg width="204" height="204" viewBox="0 0 204 204" fill="none" xmlns="http://www.w3.org/2000/svg">
<rect width="204" height="204" rx="102" fill="#FFEBE6"/>
<rect x="33" y="33" width="138" height="138" rx="69" fill="#EE5148"/>
<path d="M102 117C103.91 117 105.741 116.21 107.091 114.803C108.441 113.397 109.2 111.489 109.2 109.5V64.5C109.2 62.5109 108.441 60.6032 107.091 59.1967C105.741 57.7902 103.91 57 102 57C100.09 57 98.2591 57.7902 96.9088 59.1967C95.5586 60.6032 94.8 62.5109 94.8 64.5V109.5C94.8 111.489 95.5586 113.397 96.9088 114.803C98.2591 116.21 100.09 117 102 117ZM102 147C103.78 147 105.52 146.45 107 145.42C108.48 144.39 109.634 142.926 110.315 141.213C110.996 139.5 111.174 137.615 110.827 135.796C110.48 133.977 109.623 132.307 108.364 130.996C107.105 129.685 105.502 128.792 103.756 128.43C102.01 128.068 100.2 128.254 98.5558 128.964C96.9113 129.673 95.5057 130.875 94.5168 132.417C93.5278 133.958 93 135.771 93 137.625C93 140.111 93.9482 142.496 95.636 144.254C97.3239 146.012 99.6131 147 102 147Z" fill="white"/>
</svg>
