<?xml version="1.0"?>

<svg xmlns="http://www.w3.org/2000/svg" xmlns:xlink="http://www.w3.org/1999/xlink" version="1.1" width="318px" height="318px" viewBox="0 0 318 318">
<defs/>
<rect x="0" y="0" width="318" height="318" fill="#ffffff" fill-opacity="0.99212598425197"/>
<rect x="10" y="10" width="9" height="9" fill="#000000"/>
<rect x="19" y="10" width="9" height="9" fill="#000000"/>
<rect x="28" y="10" width="9" height="9" fill="#000000"/>
<rect x="37" y="10" width="9" height="9" fill="#000000"/>
<rect x="46" y="10" width="9" height="9" fill="#000000"/>
<rect x="55" y="10" width="9" height="9" fill="#000000"/>
<rect x="64" y="10" width="9" height="9" fill="#000000"/>
<rect x="82" y="10" width="9" height="9" fill="#000000"/>
<rect x="91" y="10" width="9" height="9" fill="#000000"/>
<rect x="100" y="10" width="9" height="9" fill="#000000"/>
<rect x="109" y="10" width="9" height="9" fill="#000000"/>
<rect x="127" y="10" width="9" height="9" fill="#000000"/>
<rect x="136" y="10" width="9" height="9" fill="#000000"/>
<rect x="154" y="10" width="9" height="9" fill="#000000"/>
<rect x="163" y="10" width="9" height="9" fill="#000000"/>
<rect x="181" y="10" width="9" height="9" fill="#000000"/>
<rect x="199" y="10" width="9" height="9" fill="#000000"/>
<rect x="208" y="10" width="9" height="9" fill="#000000"/>
<rect x="217" y="10" width="9" height="9" fill="#000000"/>
<rect x="226" y="10" width="9" height="9" fill="#000000"/>
<rect x="244" y="10" width="9" height="9" fill="#000000"/>
<rect x="253" y="10" width="9" height="9" fill="#000000"/>
<rect x="262" y="10" width="9" height="9" fill="#000000"/>
<rect x="271" y="10" width="9" height="9" fill="#000000"/>
<rect x="280" y="10" width="9" height="9" fill="#000000"/>
<rect x="289" y="10" width="9" height="9" fill="#000000"/>
<rect x="298" y="10" width="9" height="9" fill="#000000"/>
<rect x="10" y="19" width="9" height="9" fill="#000000"/>
<rect x="64" y="19" width="9" height="9" fill="#000000"/>
<rect x="82" y="19" width="9" height="9" fill="#000000"/>
<rect x="91" y="19" width="9" height="9" fill="#000000"/>
<rect x="118" y="19" width="9" height="9" fill="#000000"/>
<rect x="136" y="19" width="9" height="9" fill="#000000"/>
<rect x="163" y="19" width="9" height="9" fill="#000000"/>
<rect x="181" y="19" width="9" height="9" fill="#000000"/>
<rect x="190" y="19" width="9" height="9" fill="#000000"/>
<rect x="244" y="19" width="9" height="9" fill="#000000"/>
<rect x="298" y="19" width="9" height="9" fill="#000000"/>
<rect x="10" y="28" width="9" height="9" fill="#000000"/>
<rect x="28" y="28" width="9" height="9" fill="#000000"/>
<rect x="37" y="28" width="9" height="9" fill="#000000"/>
<rect x="46" y="28" width="9" height="9" fill="#000000"/>
<rect x="64" y="28" width="9" height="9" fill="#000000"/>
<rect x="82" y="28" width="9" height="9" fill="#000000"/>
<rect x="91" y="28" width="9" height="9" fill="#000000"/>
<rect x="100" y="28" width="9" height="9" fill="#000000"/>
<rect x="136" y="28" width="9" height="9" fill="#000000"/>
<rect x="145" y="28" width="9" height="9" fill="#000000"/>
<rect x="163" y="28" width="9" height="9" fill="#000000"/>
<rect x="172" y="28" width="9" height="9" fill="#000000"/>
<rect x="217" y="28" width="9" height="9" fill="#000000"/>
<rect x="244" y="28" width="9" height="9" fill="#000000"/>
<rect x="262" y="28" width="9" height="9" fill="#000000"/>
<rect x="271" y="28" width="9" height="9" fill="#000000"/>
<rect x="280" y="28" width="9" height="9" fill="#000000"/>
<rect x="298" y="28" width="9" height="9" fill="#000000"/>
<rect x="10" y="37" width="9" height="9" fill="#000000"/>
<rect x="28" y="37" width="9" height="9" fill="#000000"/>
<rect x="37" y="37" width="9" height="9" fill="#000000"/>
<rect x="46" y="37" width="9" height="9" fill="#000000"/>
<rect x="64" y="37" width="9" height="9" fill="#000000"/>
<rect x="100" y="37" width="9" height="9" fill="#000000"/>
<rect x="109" y="37" width="9" height="9" fill="#000000"/>
<rect x="118" y="37" width="9" height="9" fill="#000000"/>
<rect x="127" y="37" width="9" height="9" fill="#000000"/>
<rect x="136" y="37" width="9" height="9" fill="#000000"/>
<rect x="145" y="37" width="9" height="9" fill="#000000"/>
<rect x="172" y="37" width="9" height="9" fill="#000000"/>
<rect x="181" y="37" width="9" height="9" fill="#000000"/>
<rect x="208" y="37" width="9" height="9" fill="#000000"/>
<rect x="226" y="37" width="9" height="9" fill="#000000"/>
<rect x="244" y="37" width="9" height="9" fill="#000000"/>
<rect x="262" y="37" width="9" height="9" fill="#000000"/>
<rect x="271" y="37" width="9" height="9" fill="#000000"/>
<rect x="280" y="37" width="9" height="9" fill="#000000"/>
<rect x="298" y="37" width="9" height="9" fill="#000000"/>
<rect x="10" y="46" width="9" height="9" fill="#000000"/>
<rect x="28" y="46" width="9" height="9" fill="#000000"/>
<rect x="37" y="46" width="9" height="9" fill="#000000"/>
<rect x="46" y="46" width="9" height="9" fill="#000000"/>
<rect x="64" y="46" width="9" height="9" fill="#000000"/>
<rect x="91" y="46" width="9" height="9" fill="#000000"/>
<rect x="127" y="46" width="9" height="9" fill="#000000"/>
<rect x="154" y="46" width="9" height="9" fill="#000000"/>
<rect x="163" y="46" width="9" height="9" fill="#000000"/>
<rect x="199" y="46" width="9" height="9" fill="#000000"/>
<rect x="244" y="46" width="9" height="9" fill="#000000"/>
<rect x="262" y="46" width="9" height="9" fill="#000000"/>
<rect x="271" y="46" width="9" height="9" fill="#000000"/>
<rect x="280" y="46" width="9" height="9" fill="#000000"/>
<rect x="298" y="46" width="9" height="9" fill="#000000"/>
<rect x="10" y="55" width="9" height="9" fill="#000000"/>
<rect x="64" y="55" width="9" height="9" fill="#000000"/>
<rect x="82" y="55" width="9" height="9" fill="#000000"/>
<rect x="91" y="55" width="9" height="9" fill="#000000"/>
<rect x="109" y="55" width="9" height="9" fill="#000000"/>
<rect x="127" y="55" width="9" height="9" fill="#000000"/>
<rect x="136" y="55" width="9" height="9" fill="#000000"/>
<rect x="145" y="55" width="9" height="9" fill="#000000"/>
<rect x="172" y="55" width="9" height="9" fill="#000000"/>
<rect x="217" y="55" width="9" height="9" fill="#000000"/>
<rect x="226" y="55" width="9" height="9" fill="#000000"/>
<rect x="244" y="55" width="9" height="9" fill="#000000"/>
<rect x="298" y="55" width="9" height="9" fill="#000000"/>
<rect x="10" y="64" width="9" height="9" fill="#000000"/>
<rect x="19" y="64" width="9" height="9" fill="#000000"/>
<rect x="28" y="64" width="9" height="9" fill="#000000"/>
<rect x="37" y="64" width="9" height="9" fill="#000000"/>
<rect x="46" y="64" width="9" height="9" fill="#000000"/>
<rect x="55" y="64" width="9" height="9" fill="#000000"/>
<rect x="64" y="64" width="9" height="9" fill="#000000"/>
<rect x="82" y="64" width="9" height="9" fill="#000000"/>
<rect x="100" y="64" width="9" height="9" fill="#000000"/>
<rect x="118" y="64" width="9" height="9" fill="#000000"/>
<rect x="136" y="64" width="9" height="9" fill="#000000"/>
<rect x="154" y="64" width="9" height="9" fill="#000000"/>
<rect x="172" y="64" width="9" height="9" fill="#000000"/>
<rect x="190" y="64" width="9" height="9" fill="#000000"/>
<rect x="208" y="64" width="9" height="9" fill="#000000"/>
<rect x="226" y="64" width="9" height="9" fill="#000000"/>
<rect x="244" y="64" width="9" height="9" fill="#000000"/>
<rect x="253" y="64" width="9" height="9" fill="#000000"/>
<rect x="262" y="64" width="9" height="9" fill="#000000"/>
<rect x="271" y="64" width="9" height="9" fill="#000000"/>
<rect x="280" y="64" width="9" height="9" fill="#000000"/>
<rect x="289" y="64" width="9" height="9" fill="#000000"/>
<rect x="298" y="64" width="9" height="9" fill="#000000"/>
<rect x="82" y="73" width="9" height="9" fill="#000000"/>
<rect x="91" y="73" width="9" height="9" fill="#000000"/>
<rect x="145" y="73" width="9" height="9" fill="#000000"/>
<rect x="163" y="73" width="9" height="9" fill="#000000"/>
<rect x="181" y="73" width="9" height="9" fill="#000000"/>
<rect x="190" y="73" width="9" height="9" fill="#000000"/>
<rect x="217" y="73" width="9" height="9" fill="#000000"/>
<rect x="28" y="82" width="9" height="9" fill="#000000"/>
<rect x="37" y="82" width="9" height="9" fill="#000000"/>
<rect x="46" y="82" width="9" height="9" fill="#000000"/>
<rect x="64" y="82" width="9" height="9" fill="#000000"/>
<rect x="82" y="82" width="9" height="9" fill="#000000"/>
<rect x="91" y="82" width="9" height="9" fill="#000000"/>
<rect x="109" y="82" width="9" height="9" fill="#000000"/>
<rect x="118" y="82" width="9" height="9" fill="#000000"/>
<rect x="136" y="82" width="9" height="9" fill="#000000"/>
<rect x="163" y="82" width="9" height="9" fill="#000000"/>
<rect x="172" y="82" width="9" height="9" fill="#000000"/>
<rect x="208" y="82" width="9" height="9" fill="#000000"/>
<rect x="217" y="82" width="9" height="9" fill="#000000"/>
<rect x="235" y="82" width="9" height="9" fill="#000000"/>
<rect x="244" y="82" width="9" height="9" fill="#000000"/>
<rect x="253" y="82" width="9" height="9" fill="#000000"/>
<rect x="280" y="82" width="9" height="9" fill="#000000"/>
<rect x="289" y="82" width="9" height="9" fill="#000000"/>
<rect x="298" y="82" width="9" height="9" fill="#000000"/>
<rect x="37" y="91" width="9" height="9" fill="#000000"/>
<rect x="73" y="91" width="9" height="9" fill="#000000"/>
<rect x="100" y="91" width="9" height="9" fill="#000000"/>
<rect x="163" y="91" width="9" height="9" fill="#000000"/>
<rect x="181" y="91" width="9" height="9" fill="#000000"/>
<rect x="190" y="91" width="9" height="9" fill="#000000"/>
<rect x="199" y="91" width="9" height="9" fill="#000000"/>
<rect x="208" y="91" width="9" height="9" fill="#000000"/>
<rect x="271" y="91" width="9" height="9" fill="#000000"/>
<rect x="280" y="91" width="9" height="9" fill="#000000"/>
<rect x="289" y="91" width="9" height="9" fill="#000000"/>
<rect x="298" y="91" width="9" height="9" fill="#000000"/>
<rect x="10" y="100" width="9" height="9" fill="#000000"/>
<rect x="28" y="100" width="9" height="9" fill="#000000"/>
<rect x="37" y="100" width="9" height="9" fill="#000000"/>
<rect x="64" y="100" width="9" height="9" fill="#000000"/>
<rect x="73" y="100" width="9" height="9" fill="#000000"/>
<rect x="82" y="100" width="9" height="9" fill="#000000"/>
<rect x="100" y="100" width="9" height="9" fill="#000000"/>
<rect x="136" y="100" width="9" height="9" fill="#000000"/>
<rect x="172" y="100" width="9" height="9" fill="#000000"/>
<rect x="199" y="100" width="9" height="9" fill="#000000"/>
<rect x="235" y="100" width="9" height="9" fill="#000000"/>
<rect x="262" y="100" width="9" height="9" fill="#000000"/>
<rect x="271" y="100" width="9" height="9" fill="#000000"/>
<rect x="289" y="100" width="9" height="9" fill="#000000"/>
<rect x="298" y="100" width="9" height="9" fill="#000000"/>
<rect x="10" y="109" width="9" height="9" fill="#000000"/>
<rect x="28" y="109" width="9" height="9" fill="#000000"/>
<rect x="37" y="109" width="9" height="9" fill="#000000"/>
<rect x="46" y="109" width="9" height="9" fill="#000000"/>
<rect x="55" y="109" width="9" height="9" fill="#000000"/>
<rect x="73" y="109" width="9" height="9" fill="#000000"/>
<rect x="109" y="109" width="9" height="9" fill="#000000"/>
<rect x="145" y="109" width="9" height="9" fill="#000000"/>
<rect x="154" y="109" width="9" height="9" fill="#000000"/>
<rect x="172" y="109" width="9" height="9" fill="#000000"/>
<rect x="199" y="109" width="9" height="9" fill="#000000"/>
<rect x="208" y="109" width="9" height="9" fill="#000000"/>
<rect x="217" y="109" width="9" height="9" fill="#000000"/>
<rect x="244" y="109" width="9" height="9" fill="#000000"/>
<rect x="280" y="109" width="9" height="9" fill="#000000"/>
<rect x="298" y="109" width="9" height="9" fill="#000000"/>
<rect x="19" y="118" width="9" height="9" fill="#000000"/>
<rect x="28" y="118" width="9" height="9" fill="#000000"/>
<rect x="55" y="118" width="9" height="9" fill="#000000"/>
<rect x="64" y="118" width="9" height="9" fill="#000000"/>
<rect x="91" y="118" width="9" height="9" fill="#000000"/>
<rect x="100" y="118" width="9" height="9" fill="#000000"/>
<rect x="154" y="118" width="9" height="9" fill="#000000"/>
<rect x="163" y="118" width="9" height="9" fill="#000000"/>
<rect x="172" y="118" width="9" height="9" fill="#000000"/>
<rect x="181" y="118" width="9" height="9" fill="#000000"/>
<rect x="199" y="118" width="9" height="9" fill="#000000"/>
<rect x="244" y="118" width="9" height="9" fill="#000000"/>
<rect x="28" y="127" width="9" height="9" fill="#000000"/>
<rect x="73" y="127" width="9" height="9" fill="#000000"/>
<rect x="100" y="127" width="9" height="9" fill="#000000"/>
<rect x="118" y="127" width="9" height="9" fill="#000000"/>
<rect x="145" y="127" width="9" height="9" fill="#000000"/>
<rect x="199" y="127" width="9" height="9" fill="#000000"/>
<rect x="208" y="127" width="9" height="9" fill="#000000"/>
<rect x="235" y="127" width="9" height="9" fill="#000000"/>
<rect x="253" y="127" width="9" height="9" fill="#000000"/>
<rect x="280" y="127" width="9" height="9" fill="#000000"/>
<rect x="28" y="136" width="9" height="9" fill="#000000"/>
<rect x="55" y="136" width="9" height="9" fill="#000000"/>
<rect x="64" y="136" width="9" height="9" fill="#000000"/>
<rect x="82" y="136" width="9" height="9" fill="#000000"/>
<rect x="91" y="136" width="9" height="9" fill="#000000"/>
<rect x="100" y="136" width="9" height="9" fill="#000000"/>
<rect x="136" y="136" width="9" height="9" fill="#000000"/>
<rect x="172" y="136" width="9" height="9" fill="#000000"/>
<rect x="181" y="136" width="9" height="9" fill="#000000"/>
<rect x="217" y="136" width="9" height="9" fill="#000000"/>
<rect x="226" y="136" width="9" height="9" fill="#000000"/>
<rect x="271" y="136" width="9" height="9" fill="#000000"/>
<rect x="280" y="136" width="9" height="9" fill="#000000"/>
<rect x="289" y="136" width="9" height="9" fill="#000000"/>
<rect x="10" y="145" width="9" height="9" fill="#000000"/>
<rect x="55" y="145" width="9" height="9" fill="#000000"/>
<rect x="73" y="145" width="9" height="9" fill="#000000"/>
<rect x="109" y="145" width="9" height="9" fill="#000000"/>
<rect x="127" y="145" width="9" height="9" fill="#000000"/>
<rect x="136" y="145" width="9" height="9" fill="#000000"/>
<rect x="163" y="145" width="9" height="9" fill="#000000"/>
<rect x="172" y="145" width="9" height="9" fill="#000000"/>
<rect x="208" y="145" width="9" height="9" fill="#000000"/>
<rect x="217" y="145" width="9" height="9" fill="#000000"/>
<rect x="244" y="145" width="9" height="9" fill="#000000"/>
<rect x="253" y="145" width="9" height="9" fill="#000000"/>
<rect x="280" y="145" width="9" height="9" fill="#000000"/>
<rect x="298" y="145" width="9" height="9" fill="#000000"/>
<rect x="19" y="154" width="9" height="9" fill="#000000"/>
<rect x="28" y="154" width="9" height="9" fill="#000000"/>
<rect x="37" y="154" width="9" height="9" fill="#000000"/>
<rect x="46" y="154" width="9" height="9" fill="#000000"/>
<rect x="55" y="154" width="9" height="9" fill="#000000"/>
<rect x="64" y="154" width="9" height="9" fill="#000000"/>
<rect x="73" y="154" width="9" height="9" fill="#000000"/>
<rect x="91" y="154" width="9" height="9" fill="#000000"/>
<rect x="100" y="154" width="9" height="9" fill="#000000"/>
<rect x="136" y="154" width="9" height="9" fill="#000000"/>
<rect x="145" y="154" width="9" height="9" fill="#000000"/>
<rect x="154" y="154" width="9" height="9" fill="#000000"/>
<rect x="163" y="154" width="9" height="9" fill="#000000"/>
<rect x="172" y="154" width="9" height="9" fill="#000000"/>
<rect x="190" y="154" width="9" height="9" fill="#000000"/>
<rect x="226" y="154" width="9" height="9" fill="#000000"/>
<rect x="235" y="154" width="9" height="9" fill="#000000"/>
<rect x="244" y="154" width="9" height="9" fill="#000000"/>
<rect x="271" y="154" width="9" height="9" fill="#000000"/>
<rect x="280" y="154" width="9" height="9" fill="#000000"/>
<rect x="298" y="154" width="9" height="9" fill="#000000"/>
<rect x="10" y="163" width="9" height="9" fill="#000000"/>
<rect x="46" y="163" width="9" height="9" fill="#000000"/>
<rect x="82" y="163" width="9" height="9" fill="#000000"/>
<rect x="163" y="163" width="9" height="9" fill="#000000"/>
<rect x="172" y="163" width="9" height="9" fill="#000000"/>
<rect x="181" y="163" width="9" height="9" fill="#000000"/>
<rect x="199" y="163" width="9" height="9" fill="#000000"/>
<rect x="226" y="163" width="9" height="9" fill="#000000"/>
<rect x="244" y="163" width="9" height="9" fill="#000000"/>
<rect x="253" y="163" width="9" height="9" fill="#000000"/>
<rect x="280" y="163" width="9" height="9" fill="#000000"/>
<rect x="19" y="172" width="9" height="9" fill="#000000"/>
<rect x="46" y="172" width="9" height="9" fill="#000000"/>
<rect x="64" y="172" width="9" height="9" fill="#000000"/>
<rect x="73" y="172" width="9" height="9" fill="#000000"/>
<rect x="91" y="172" width="9" height="9" fill="#000000"/>
<rect x="109" y="172" width="9" height="9" fill="#000000"/>
<rect x="154" y="172" width="9" height="9" fill="#000000"/>
<rect x="190" y="172" width="9" height="9" fill="#000000"/>
<rect x="208" y="172" width="9" height="9" fill="#000000"/>
<rect x="235" y="172" width="9" height="9" fill="#000000"/>
<rect x="244" y="172" width="9" height="9" fill="#000000"/>
<rect x="253" y="172" width="9" height="9" fill="#000000"/>
<rect x="262" y="172" width="9" height="9" fill="#000000"/>
<rect x="271" y="172" width="9" height="9" fill="#000000"/>
<rect x="280" y="172" width="9" height="9" fill="#000000"/>
<rect x="289" y="172" width="9" height="9" fill="#000000"/>
<rect x="298" y="172" width="9" height="9" fill="#000000"/>
<rect x="19" y="181" width="9" height="9" fill="#000000"/>
<rect x="28" y="181" width="9" height="9" fill="#000000"/>
<rect x="37" y="181" width="9" height="9" fill="#000000"/>
<rect x="46" y="181" width="9" height="9" fill="#000000"/>
<rect x="82" y="181" width="9" height="9" fill="#000000"/>
<rect x="100" y="181" width="9" height="9" fill="#000000"/>
<rect x="118" y="181" width="9" height="9" fill="#000000"/>
<rect x="127" y="181" width="9" height="9" fill="#000000"/>
<rect x="136" y="181" width="9" height="9" fill="#000000"/>
<rect x="154" y="181" width="9" height="9" fill="#000000"/>
<rect x="217" y="181" width="9" height="9" fill="#000000"/>
<rect x="244" y="181" width="9" height="9" fill="#000000"/>
<rect x="271" y="181" width="9" height="9" fill="#000000"/>
<rect x="280" y="181" width="9" height="9" fill="#000000"/>
<rect x="298" y="181" width="9" height="9" fill="#000000"/>
<rect x="19" y="190" width="9" height="9" fill="#000000"/>
<rect x="28" y="190" width="9" height="9" fill="#000000"/>
<rect x="37" y="190" width="9" height="9" fill="#000000"/>
<rect x="64" y="190" width="9" height="9" fill="#000000"/>
<rect x="73" y="190" width="9" height="9" fill="#000000"/>
<rect x="109" y="190" width="9" height="9" fill="#000000"/>
<rect x="136" y="190" width="9" height="9" fill="#000000"/>
<rect x="172" y="190" width="9" height="9" fill="#000000"/>
<rect x="181" y="190" width="9" height="9" fill="#000000"/>
<rect x="199" y="190" width="9" height="9" fill="#000000"/>
<rect x="208" y="190" width="9" height="9" fill="#000000"/>
<rect x="235" y="190" width="9" height="9" fill="#000000"/>
<rect x="244" y="190" width="9" height="9" fill="#000000"/>
<rect x="253" y="190" width="9" height="9" fill="#000000"/>
<rect x="262" y="190" width="9" height="9" fill="#000000"/>
<rect x="271" y="190" width="9" height="9" fill="#000000"/>
<rect x="289" y="190" width="9" height="9" fill="#000000"/>
<rect x="298" y="190" width="9" height="9" fill="#000000"/>
<rect x="10" y="199" width="9" height="9" fill="#000000"/>
<rect x="37" y="199" width="9" height="9" fill="#000000"/>
<rect x="55" y="199" width="9" height="9" fill="#000000"/>
<rect x="73" y="199" width="9" height="9" fill="#000000"/>
<rect x="91" y="199" width="9" height="9" fill="#000000"/>
<rect x="109" y="199" width="9" height="9" fill="#000000"/>
<rect x="118" y="199" width="9" height="9" fill="#000000"/>
<rect x="190" y="199" width="9" height="9" fill="#000000"/>
<rect x="199" y="199" width="9" height="9" fill="#000000"/>
<rect x="208" y="199" width="9" height="9" fill="#000000"/>
<rect x="226" y="199" width="9" height="9" fill="#000000"/>
<rect x="253" y="199" width="9" height="9" fill="#000000"/>
<rect x="271" y="199" width="9" height="9" fill="#000000"/>
<rect x="280" y="199" width="9" height="9" fill="#000000"/>
<rect x="289" y="199" width="9" height="9" fill="#000000"/>
<rect x="10" y="208" width="9" height="9" fill="#000000"/>
<rect x="28" y="208" width="9" height="9" fill="#000000"/>
<rect x="37" y="208" width="9" height="9" fill="#000000"/>
<rect x="46" y="208" width="9" height="9" fill="#000000"/>
<rect x="64" y="208" width="9" height="9" fill="#000000"/>
<rect x="73" y="208" width="9" height="9" fill="#000000"/>
<rect x="91" y="208" width="9" height="9" fill="#000000"/>
<rect x="100" y="208" width="9" height="9" fill="#000000"/>
<rect x="118" y="208" width="9" height="9" fill="#000000"/>
<rect x="136" y="208" width="9" height="9" fill="#000000"/>
<rect x="154" y="208" width="9" height="9" fill="#000000"/>
<rect x="163" y="208" width="9" height="9" fill="#000000"/>
<rect x="190" y="208" width="9" height="9" fill="#000000"/>
<rect x="199" y="208" width="9" height="9" fill="#000000"/>
<rect x="235" y="208" width="9" height="9" fill="#000000"/>
<rect x="262" y="208" width="9" height="9" fill="#000000"/>
<rect x="271" y="208" width="9" height="9" fill="#000000"/>
<rect x="298" y="208" width="9" height="9" fill="#000000"/>
<rect x="10" y="217" width="9" height="9" fill="#000000"/>
<rect x="37" y="217" width="9" height="9" fill="#000000"/>
<rect x="55" y="217" width="9" height="9" fill="#000000"/>
<rect x="73" y="217" width="9" height="9" fill="#000000"/>
<rect x="82" y="217" width="9" height="9" fill="#000000"/>
<rect x="91" y="217" width="9" height="9" fill="#000000"/>
<rect x="127" y="217" width="9" height="9" fill="#000000"/>
<rect x="172" y="217" width="9" height="9" fill="#000000"/>
<rect x="181" y="217" width="9" height="9" fill="#000000"/>
<rect x="190" y="217" width="9" height="9" fill="#000000"/>
<rect x="199" y="217" width="9" height="9" fill="#000000"/>
<rect x="226" y="217" width="9" height="9" fill="#000000"/>
<rect x="235" y="217" width="9" height="9" fill="#000000"/>
<rect x="244" y="217" width="9" height="9" fill="#000000"/>
<rect x="280" y="217" width="9" height="9" fill="#000000"/>
<rect x="298" y="217" width="9" height="9" fill="#000000"/>
<rect x="10" y="226" width="9" height="9" fill="#000000"/>
<rect x="37" y="226" width="9" height="9" fill="#000000"/>
<rect x="55" y="226" width="9" height="9" fill="#000000"/>
<rect x="64" y="226" width="9" height="9" fill="#000000"/>
<rect x="82" y="226" width="9" height="9" fill="#000000"/>
<rect x="91" y="226" width="9" height="9" fill="#000000"/>
<rect x="145" y="226" width="9" height="9" fill="#000000"/>
<rect x="163" y="226" width="9" height="9" fill="#000000"/>
<rect x="190" y="226" width="9" height="9" fill="#000000"/>
<rect x="199" y="226" width="9" height="9" fill="#000000"/>
<rect x="226" y="226" width="9" height="9" fill="#000000"/>
<rect x="235" y="226" width="9" height="9" fill="#000000"/>
<rect x="244" y="226" width="9" height="9" fill="#000000"/>
<rect x="253" y="226" width="9" height="9" fill="#000000"/>
<rect x="262" y="226" width="9" height="9" fill="#000000"/>
<rect x="280" y="226" width="9" height="9" fill="#000000"/>
<rect x="289" y="226" width="9" height="9" fill="#000000"/>
<rect x="82" y="235" width="9" height="9" fill="#000000"/>
<rect x="91" y="235" width="9" height="9" fill="#000000"/>
<rect x="100" y="235" width="9" height="9" fill="#000000"/>
<rect x="109" y="235" width="9" height="9" fill="#000000"/>
<rect x="154" y="235" width="9" height="9" fill="#000000"/>
<rect x="172" y="235" width="9" height="9" fill="#000000"/>
<rect x="226" y="235" width="9" height="9" fill="#000000"/>
<rect x="262" y="235" width="9" height="9" fill="#000000"/>
<rect x="271" y="235" width="9" height="9" fill="#000000"/>
<rect x="280" y="235" width="9" height="9" fill="#000000"/>
<rect x="289" y="235" width="9" height="9" fill="#000000"/>
<rect x="298" y="235" width="9" height="9" fill="#000000"/>
<rect x="10" y="244" width="9" height="9" fill="#000000"/>
<rect x="19" y="244" width="9" height="9" fill="#000000"/>
<rect x="28" y="244" width="9" height="9" fill="#000000"/>
<rect x="37" y="244" width="9" height="9" fill="#000000"/>
<rect x="46" y="244" width="9" height="9" fill="#000000"/>
<rect x="55" y="244" width="9" height="9" fill="#000000"/>
<rect x="64" y="244" width="9" height="9" fill="#000000"/>
<rect x="109" y="244" width="9" height="9" fill="#000000"/>
<rect x="118" y="244" width="9" height="9" fill="#000000"/>
<rect x="127" y="244" width="9" height="9" fill="#000000"/>
<rect x="136" y="244" width="9" height="9" fill="#000000"/>
<rect x="145" y="244" width="9" height="9" fill="#000000"/>
<rect x="172" y="244" width="9" height="9" fill="#000000"/>
<rect x="190" y="244" width="9" height="9" fill="#000000"/>
<rect x="208" y="244" width="9" height="9" fill="#000000"/>
<rect x="217" y="244" width="9" height="9" fill="#000000"/>
<rect x="226" y="244" width="9" height="9" fill="#000000"/>
<rect x="244" y="244" width="9" height="9" fill="#000000"/>
<rect x="262" y="244" width="9" height="9" fill="#000000"/>
<rect x="289" y="244" width="9" height="9" fill="#000000"/>
<rect x="298" y="244" width="9" height="9" fill="#000000"/>
<rect x="10" y="253" width="9" height="9" fill="#000000"/>
<rect x="64" y="253" width="9" height="9" fill="#000000"/>
<rect x="91" y="253" width="9" height="9" fill="#000000"/>
<rect x="100" y="253" width="9" height="9" fill="#000000"/>
<rect x="109" y="253" width="9" height="9" fill="#000000"/>
<rect x="118" y="253" width="9" height="9" fill="#000000"/>
<rect x="127" y="253" width="9" height="9" fill="#000000"/>
<rect x="181" y="253" width="9" height="9" fill="#000000"/>
<rect x="226" y="253" width="9" height="9" fill="#000000"/>
<rect x="262" y="253" width="9" height="9" fill="#000000"/>
<rect x="271" y="253" width="9" height="9" fill="#000000"/>
<rect x="280" y="253" width="9" height="9" fill="#000000"/>
<rect x="298" y="253" width="9" height="9" fill="#000000"/>
<rect x="10" y="262" width="9" height="9" fill="#000000"/>
<rect x="28" y="262" width="9" height="9" fill="#000000"/>
<rect x="37" y="262" width="9" height="9" fill="#000000"/>
<rect x="46" y="262" width="9" height="9" fill="#000000"/>
<rect x="64" y="262" width="9" height="9" fill="#000000"/>
<rect x="82" y="262" width="9" height="9" fill="#000000"/>
<rect x="91" y="262" width="9" height="9" fill="#000000"/>
<rect x="100" y="262" width="9" height="9" fill="#000000"/>
<rect x="127" y="262" width="9" height="9" fill="#000000"/>
<rect x="136" y="262" width="9" height="9" fill="#000000"/>
<rect x="154" y="262" width="9" height="9" fill="#000000"/>
<rect x="199" y="262" width="9" height="9" fill="#000000"/>
<rect x="208" y="262" width="9" height="9" fill="#000000"/>
<rect x="226" y="262" width="9" height="9" fill="#000000"/>
<rect x="235" y="262" width="9" height="9" fill="#000000"/>
<rect x="244" y="262" width="9" height="9" fill="#000000"/>
<rect x="253" y="262" width="9" height="9" fill="#000000"/>
<rect x="262" y="262" width="9" height="9" fill="#000000"/>
<rect x="271" y="262" width="9" height="9" fill="#000000"/>
<rect x="280" y="262" width="9" height="9" fill="#000000"/>
<rect x="10" y="271" width="9" height="9" fill="#000000"/>
<rect x="28" y="271" width="9" height="9" fill="#000000"/>
<rect x="37" y="271" width="9" height="9" fill="#000000"/>
<rect x="46" y="271" width="9" height="9" fill="#000000"/>
<rect x="64" y="271" width="9" height="9" fill="#000000"/>
<rect x="82" y="271" width="9" height="9" fill="#000000"/>
<rect x="91" y="271" width="9" height="9" fill="#000000"/>
<rect x="109" y="271" width="9" height="9" fill="#000000"/>
<rect x="118" y="271" width="9" height="9" fill="#000000"/>
<rect x="127" y="271" width="9" height="9" fill="#000000"/>
<rect x="145" y="271" width="9" height="9" fill="#000000"/>
<rect x="154" y="271" width="9" height="9" fill="#000000"/>
<rect x="217" y="271" width="9" height="9" fill="#000000"/>
<rect x="235" y="271" width="9" height="9" fill="#000000"/>
<rect x="253" y="271" width="9" height="9" fill="#000000"/>
<rect x="271" y="271" width="9" height="9" fill="#000000"/>
<rect x="289" y="271" width="9" height="9" fill="#000000"/>
<rect x="10" y="280" width="9" height="9" fill="#000000"/>
<rect x="28" y="280" width="9" height="9" fill="#000000"/>
<rect x="37" y="280" width="9" height="9" fill="#000000"/>
<rect x="46" y="280" width="9" height="9" fill="#000000"/>
<rect x="64" y="280" width="9" height="9" fill="#000000"/>
<rect x="82" y="280" width="9" height="9" fill="#000000"/>
<rect x="100" y="280" width="9" height="9" fill="#000000"/>
<rect x="109" y="280" width="9" height="9" fill="#000000"/>
<rect x="127" y="280" width="9" height="9" fill="#000000"/>
<rect x="163" y="280" width="9" height="9" fill="#000000"/>
<rect x="172" y="280" width="9" height="9" fill="#000000"/>
<rect x="208" y="280" width="9" height="9" fill="#000000"/>
<rect x="217" y="280" width="9" height="9" fill="#000000"/>
<rect x="226" y="280" width="9" height="9" fill="#000000"/>
<rect x="253" y="280" width="9" height="9" fill="#000000"/>
<rect x="262" y="280" width="9" height="9" fill="#000000"/>
<rect x="10" y="289" width="9" height="9" fill="#000000"/>
<rect x="64" y="289" width="9" height="9" fill="#000000"/>
<rect x="136" y="289" width="9" height="9" fill="#000000"/>
<rect x="163" y="289" width="9" height="9" fill="#000000"/>
<rect x="172" y="289" width="9" height="9" fill="#000000"/>
<rect x="208" y="289" width="9" height="9" fill="#000000"/>
<rect x="217" y="289" width="9" height="9" fill="#000000"/>
<rect x="226" y="289" width="9" height="9" fill="#000000"/>
<rect x="235" y="289" width="9" height="9" fill="#000000"/>
<rect x="253" y="289" width="9" height="9" fill="#000000"/>
<rect x="262" y="289" width="9" height="9" fill="#000000"/>
<rect x="271" y="289" width="9" height="9" fill="#000000"/>
<rect x="289" y="289" width="9" height="9" fill="#000000"/>
<rect x="298" y="289" width="9" height="9" fill="#000000"/>
<rect x="10" y="298" width="9" height="9" fill="#000000"/>
<rect x="19" y="298" width="9" height="9" fill="#000000"/>
<rect x="28" y="298" width="9" height="9" fill="#000000"/>
<rect x="37" y="298" width="9" height="9" fill="#000000"/>
<rect x="46" y="298" width="9" height="9" fill="#000000"/>
<rect x="55" y="298" width="9" height="9" fill="#000000"/>
<rect x="64" y="298" width="9" height="9" fill="#000000"/>
<rect x="91" y="298" width="9" height="9" fill="#000000"/>
<rect x="100" y="298" width="9" height="9" fill="#000000"/>
<rect x="118" y="298" width="9" height="9" fill="#000000"/>
<rect x="127" y="298" width="9" height="9" fill="#000000"/>
<rect x="136" y="298" width="9" height="9" fill="#000000"/>
<rect x="145" y="298" width="9" height="9" fill="#000000"/>
<rect x="154" y="298" width="9" height="9" fill="#000000"/>
<rect x="163" y="298" width="9" height="9" fill="#000000"/>
<rect x="181" y="298" width="9" height="9" fill="#000000"/>
<rect x="190" y="298" width="9" height="9" fill="#000000"/>
<rect x="199" y="298" width="9" height="9" fill="#000000"/>
<rect x="208" y="298" width="9" height="9" fill="#000000"/>
<rect x="217" y="298" width="9" height="9" fill="#000000"/>
<rect x="226" y="298" width="9" height="9" fill="#000000"/>
<rect x="244" y="298" width="9" height="9" fill="#000000"/>
<rect x="280" y="298" width="9" height="9" fill="#000000"/>
<rect x="289" y="298" width="9" height="9" fill="#000000"/>
</svg>

