<?xml version="1.0" encoding="utf-8"?>
<svg xmlns="http://www.w3.org/2000/svg" xmlns:xlink="http://www.w3.org/1999/xlink" xml:space="preserve" width="360" height="360" viewBox="0 0 360 360"><g fill="#000000">
<g transform="translate(80,16) scale(1.3733333333333)"><rect width="6" height="6"/></g>
<g transform="translate(96,16) scale(1.3733333333333)"><rect width="6" height="6"/></g>
<g transform="translate(104,16) scale(1.3733333333333)"><rect width="6" height="6"/></g>
<g transform="translate(136,16) scale(1.3733333333333)"><rect width="6" height="6"/></g>
<g transform="translate(152,16) scale(1.3733333333333)"><rect width="6" height="6"/></g>
<g transform="translate(176,16) scale(1.3733333333333)"><rect width="6" height="6"/></g>
<g transform="translate(200,16) scale(1.3733333333333)"><rect width="6" height="6"/></g>
<g transform="translate(240,16) scale(1.3733333333333)"><rect width="6" height="6"/></g>
<g transform="translate(264,16) scale(1.3733333333333)"><rect width="6" height="6"/></g>
<g transform="translate(80,24) scale(1.3733333333333)"><rect width="6" height="6"/></g>
<g transform="translate(120,24) scale(1.3733333333333)"><rect width="6" height="6"/></g>
<g transform="translate(144,24) scale(1.3733333333333)"><rect width="6" height="6"/></g>
<g transform="translate(160,24) scale(1.3733333333333)"><rect width="6" height="6"/></g>
<g transform="translate(168,24) scale(1.3733333333333)"><rect width="6" height="6"/></g>
<g transform="translate(192,24) scale(1.3733333333333)"><rect width="6" height="6"/></g>
<g transform="translate(200,24) scale(1.3733333333333)"><rect width="6" height="6"/></g>
<g transform="translate(208,24) scale(1.3733333333333)"><rect width="6" height="6"/></g>
<g transform="translate(232,24) scale(1.3733333333333)"><rect width="6" height="6"/></g>
<g transform="translate(240,24) scale(1.3733333333333)"><rect width="6" height="6"/></g>
<g transform="translate(256,24) scale(1.3733333333333)"><rect width="6" height="6"/></g>
<g transform="translate(80,32) scale(1.3733333333333)"><rect width="6" height="6"/></g>
<g transform="translate(136,32) scale(1.3733333333333)"><rect width="6" height="6"/></g>
<g transform="translate(152,32) scale(1.3733333333333)"><rect width="6" height="6"/></g>
<g transform="translate(160,32) scale(1.3733333333333)"><rect width="6" height="6"/></g>
<g transform="translate(168,32) scale(1.3733333333333)"><rect width="6" height="6"/></g>
<g transform="translate(176,32) scale(1.3733333333333)"><rect width="6" height="6"/></g>
<g transform="translate(192,32) scale(1.3733333333333)"><rect width="6" height="6"/></g>
<g transform="translate(200,32) scale(1.3733333333333)"><rect width="6" height="6"/></g>
<g transform="translate(224,32) scale(1.3733333333333)"><rect width="6" height="6"/></g>
<g transform="translate(232,32) scale(1.3733333333333)"><rect width="6" height="6"/></g>
<g transform="translate(240,32) scale(1.3733333333333)"><rect width="6" height="6"/></g>
<g transform="translate(256,32) scale(1.3733333333333)"><rect width="6" height="6"/></g>
<g transform="translate(264,32) scale(1.3733333333333)"><rect width="6" height="6"/></g>
<g transform="translate(272,32) scale(1.3733333333333)"><rect width="6" height="6"/></g>
<g transform="translate(96,40) scale(1.3733333333333)"><rect width="6" height="6"/></g>
<g transform="translate(120,40) scale(1.3733333333333)"><rect width="6" height="6"/></g>
<g transform="translate(136,40) scale(1.3733333333333)"><rect width="6" height="6"/></g>
<g transform="translate(160,40) scale(1.3733333333333)"><rect width="6" height="6"/></g>
<g transform="translate(168,40) scale(1.3733333333333)"><rect width="6" height="6"/></g>
<g transform="translate(184,40) scale(1.3733333333333)"><rect width="6" height="6"/></g>
<g transform="translate(192,40) scale(1.3733333333333)"><rect width="6" height="6"/></g>
<g transform="translate(200,40) scale(1.3733333333333)"><rect width="6" height="6"/></g>
<g transform="translate(232,40) scale(1.3733333333333)"><rect width="6" height="6"/></g>
<g transform="translate(256,40) scale(1.3733333333333)"><rect width="6" height="6"/></g>
<g transform="translate(264,40) scale(1.3733333333333)"><rect width="6" height="6"/></g>
<g transform="translate(96,48) scale(1.3733333333333)"><rect width="6" height="6"/></g>
<g transform="translate(104,48) scale(1.3733333333333)"><rect width="6" height="6"/></g>
<g transform="translate(128,48) scale(1.3733333333333)"><rect width="6" height="6"/></g>
<g transform="translate(152,48) scale(1.3733333333333)"><rect width="6" height="6"/></g>
<g transform="translate(160,48) scale(1.3733333333333)"><rect width="6" height="6"/></g>
<g transform="translate(168,48) scale(1.3733333333333)"><rect width="6" height="6"/></g>
<g transform="translate(176,48) scale(1.3733333333333)"><rect width="6" height="6"/></g>
<g transform="translate(192,48) scale(1.3733333333333)"><rect width="6" height="6"/></g>
<g transform="translate(216,48) scale(1.3733333333333)"><rect width="6" height="6"/></g>
<g transform="translate(224,48) scale(1.3733333333333)"><rect width="6" height="6"/></g>
<g transform="translate(264,48) scale(1.3733333333333)"><rect width="6" height="6"/></g>
<g transform="translate(272,48) scale(1.3733333333333)"><rect width="6" height="6"/></g>
<g transform="translate(80,56) scale(1.3733333333333)"><rect width="6" height="6"/></g>
<g transform="translate(96,56) scale(1.3733333333333)"><rect width="6" height="6"/></g>
<g transform="translate(104,56) scale(1.3733333333333)"><rect width="6" height="6"/></g>
<g transform="translate(112,56) scale(1.3733333333333)"><rect width="6" height="6"/></g>
<g transform="translate(128,56) scale(1.3733333333333)"><rect width="6" height="6"/></g>
<g transform="translate(136,56) scale(1.3733333333333)"><rect width="6" height="6"/></g>
<g transform="translate(144,56) scale(1.3733333333333)"><rect width="6" height="6"/></g>
<g transform="translate(152,56) scale(1.3733333333333)"><rect width="6" height="6"/></g>
<g transform="translate(176,56) scale(1.3733333333333)"><rect width="6" height="6"/></g>
<g transform="translate(184,56) scale(1.3733333333333)"><rect width="6" height="6"/></g>
<g transform="translate(200,56) scale(1.3733333333333)"><rect width="6" height="6"/></g>
<g transform="translate(216,56) scale(1.3733333333333)"><rect width="6" height="6"/></g>
<g transform="translate(232,56) scale(1.3733333333333)"><rect width="6" height="6"/></g>
<g transform="translate(240,56) scale(1.3733333333333)"><rect width="6" height="6"/></g>
<g transform="translate(256,56) scale(1.3733333333333)"><rect width="6" height="6"/></g>
<g transform="translate(272,56) scale(1.3733333333333)"><rect width="6" height="6"/></g>
<g transform="translate(80,64) scale(1.3733333333333)"><rect width="6" height="6"/></g>
<g transform="translate(96,64) scale(1.3733333333333)"><rect width="6" height="6"/></g>
<g transform="translate(112,64) scale(1.3733333333333)"><rect width="6" height="6"/></g>
<g transform="translate(128,64) scale(1.3733333333333)"><rect width="6" height="6"/></g>
<g transform="translate(144,64) scale(1.3733333333333)"><rect width="6" height="6"/></g>
<g transform="translate(160,64) scale(1.3733333333333)"><rect width="6" height="6"/></g>
<g transform="translate(176,64) scale(1.3733333333333)"><rect width="6" height="6"/></g>
<g transform="translate(192,64) scale(1.3733333333333)"><rect width="6" height="6"/></g>
<g transform="translate(208,64) scale(1.3733333333333)"><rect width="6" height="6"/></g>
<g transform="translate(224,64) scale(1.3733333333333)"><rect width="6" height="6"/></g>
<g transform="translate(240,64) scale(1.3733333333333)"><rect width="6" height="6"/></g>
<g transform="translate(256,64) scale(1.3733333333333)"><rect width="6" height="6"/></g>
<g transform="translate(272,64) scale(1.3733333333333)"><rect width="6" height="6"/></g>
<g transform="translate(80,72) scale(1.3733333333333)"><rect width="6" height="6"/></g>
<g transform="translate(96,72) scale(1.3733333333333)"><rect width="6" height="6"/></g>
<g transform="translate(104,72) scale(1.3733333333333)"><rect width="6" height="6"/></g>
<g transform="translate(112,72) scale(1.3733333333333)"><rect width="6" height="6"/></g>
<g transform="translate(168,72) scale(1.3733333333333)"><rect width="6" height="6"/></g>
<g transform="translate(176,72) scale(1.3733333333333)"><rect width="6" height="6"/></g>
<g transform="translate(184,72) scale(1.3733333333333)"><rect width="6" height="6"/></g>
<g transform="translate(192,72) scale(1.3733333333333)"><rect width="6" height="6"/></g>
<g transform="translate(216,72) scale(1.3733333333333)"><rect width="6" height="6"/></g>
<g transform="translate(232,72) scale(1.3733333333333)"><rect width="6" height="6"/></g>
<g transform="translate(240,72) scale(1.3733333333333)"><rect width="6" height="6"/></g>
<g transform="translate(256,72) scale(1.3733333333333)"><rect width="6" height="6"/></g>
<g transform="translate(264,72) scale(1.3733333333333)"><rect width="6" height="6"/></g>
<g transform="translate(272,72) scale(1.3733333333333)"><rect width="6" height="6"/></g>
<g transform="translate(32,80) scale(1.3733333333333)"><rect width="6" height="6"/></g>
<g transform="translate(40,80) scale(1.3733333333333)"><rect width="6" height="6"/></g>
<g transform="translate(48,80) scale(1.3733333333333)"><rect width="6" height="6"/></g>
<g transform="translate(64,80) scale(1.3733333333333)"><rect width="6" height="6"/></g>
<g transform="translate(80,80) scale(1.3733333333333)"><rect width="6" height="6"/></g>
<g transform="translate(88,80) scale(1.3733333333333)"><rect width="6" height="6"/></g>
<g transform="translate(112,80) scale(1.3733333333333)"><rect width="6" height="6"/></g>
<g transform="translate(128,80) scale(1.3733333333333)"><rect width="6" height="6"/></g>
<g transform="translate(144,80) scale(1.3733333333333)"><rect width="6" height="6"/></g>
<g transform="translate(152,80) scale(1.3733333333333)"><rect width="6" height="6"/></g>
<g transform="translate(160,80) scale(1.3733333333333)"><rect width="6" height="6"/></g>
<g transform="translate(176,80) scale(1.3733333333333)"><rect width="6" height="6"/></g>
<g transform="translate(184,80) scale(1.3733333333333)"><rect width="6" height="6"/></g>
<g transform="translate(200,80) scale(1.3733333333333)"><rect width="6" height="6"/></g>
<g transform="translate(216,80) scale(1.3733333333333)"><rect width="6" height="6"/></g>
<g transform="translate(232,80) scale(1.3733333333333)"><rect width="6" height="6"/></g>
<g transform="translate(248,80) scale(1.3733333333333)"><rect width="6" height="6"/></g>
<g transform="translate(264,80) scale(1.3733333333333)"><rect width="6" height="6"/></g>
<g transform="translate(272,80) scale(1.3733333333333)"><rect width="6" height="6"/></g>
<g transform="translate(280,80) scale(1.3733333333333)"><rect width="6" height="6"/></g>
<g transform="translate(288,80) scale(1.3733333333333)"><rect width="6" height="6"/></g>
<g transform="translate(296,80) scale(1.3733333333333)"><rect width="6" height="6"/></g>
<g transform="translate(320,80) scale(1.3733333333333)"><rect width="6" height="6"/></g>
<g transform="translate(328,80) scale(1.3733333333333)"><rect width="6" height="6"/></g>
<g transform="translate(336,80) scale(1.3733333333333)"><rect width="6" height="6"/></g>
<g transform="translate(24,88) scale(1.3733333333333)"><rect width="6" height="6"/></g>
<g transform="translate(32,88) scale(1.3733333333333)"><rect width="6" height="6"/></g>
<g transform="translate(40,88) scale(1.3733333333333)"><rect width="6" height="6"/></g>
<g transform="translate(48,88) scale(1.3733333333333)"><rect width="6" height="6"/></g>
<g transform="translate(80,88) scale(1.3733333333333)"><rect width="6" height="6"/></g>
<g transform="translate(88,88) scale(1.3733333333333)"><rect width="6" height="6"/></g>
<g transform="translate(120,88) scale(1.3733333333333)"><rect width="6" height="6"/></g>
<g transform="translate(144,88) scale(1.3733333333333)"><rect width="6" height="6"/></g>
<g transform="translate(152,88) scale(1.3733333333333)"><rect width="6" height="6"/></g>
<g transform="translate(168,88) scale(1.3733333333333)"><rect width="6" height="6"/></g>
<g transform="translate(176,88) scale(1.3733333333333)"><rect width="6" height="6"/></g>
<g transform="translate(192,88) scale(1.3733333333333)"><rect width="6" height="6"/></g>
<g transform="translate(200,88) scale(1.3733333333333)"><rect width="6" height="6"/></g>
<g transform="translate(208,88) scale(1.3733333333333)"><rect width="6" height="6"/></g>
<g transform="translate(216,88) scale(1.3733333333333)"><rect width="6" height="6"/></g>
<g transform="translate(264,88) scale(1.3733333333333)"><rect width="6" height="6"/></g>
<g transform="translate(272,88) scale(1.3733333333333)"><rect width="6" height="6"/></g>
<g transform="translate(288,88) scale(1.3733333333333)"><rect width="6" height="6"/></g>
<g transform="translate(296,88) scale(1.3733333333333)"><rect width="6" height="6"/></g>
<g transform="translate(304,88) scale(1.3733333333333)"><rect width="6" height="6"/></g>
<g transform="translate(320,88) scale(1.3733333333333)"><rect width="6" height="6"/></g>
<g transform="translate(328,88) scale(1.3733333333333)"><rect width="6" height="6"/></g>
<g transform="translate(336,88) scale(1.3733333333333)"><rect width="6" height="6"/></g>
<g transform="translate(24,96) scale(1.3733333333333)"><rect width="6" height="6"/></g>
<g transform="translate(32,96) scale(1.3733333333333)"><rect width="6" height="6"/></g>
<g transform="translate(40,96) scale(1.3733333333333)"><rect width="6" height="6"/></g>
<g transform="translate(56,96) scale(1.3733333333333)"><rect width="6" height="6"/></g>
<g transform="translate(64,96) scale(1.3733333333333)"><rect width="6" height="6"/></g>
<g transform="translate(80,96) scale(1.3733333333333)"><rect width="6" height="6"/></g>
<g transform="translate(88,96) scale(1.3733333333333)"><rect width="6" height="6"/></g>
<g transform="translate(96,96) scale(1.3733333333333)"><rect width="6" height="6"/></g>
<g transform="translate(104,96) scale(1.3733333333333)"><rect width="6" height="6"/></g>
<g transform="translate(136,96) scale(1.3733333333333)"><rect width="6" height="6"/></g>
<g transform="translate(152,96) scale(1.3733333333333)"><rect width="6" height="6"/></g>
<g transform="translate(160,96) scale(1.3733333333333)"><rect width="6" height="6"/></g>
<g transform="translate(168,96) scale(1.3733333333333)"><rect width="6" height="6"/></g>
<g transform="translate(208,96) scale(1.3733333333333)"><rect width="6" height="6"/></g>
<g transform="translate(224,96) scale(1.3733333333333)"><rect width="6" height="6"/></g>
<g transform="translate(232,96) scale(1.3733333333333)"><rect width="6" height="6"/></g>
<g transform="translate(240,96) scale(1.3733333333333)"><rect width="6" height="6"/></g>
<g transform="translate(248,96) scale(1.3733333333333)"><rect width="6" height="6"/></g>
<g transform="translate(272,96) scale(1.3733333333333)"><rect width="6" height="6"/></g>
<g transform="translate(288,96) scale(1.3733333333333)"><rect width="6" height="6"/></g>
<g transform="translate(296,96) scale(1.3733333333333)"><rect width="6" height="6"/></g>
<g transform="translate(32,104) scale(1.3733333333333)"><rect width="6" height="6"/></g>
<g transform="translate(48,104) scale(1.3733333333333)"><rect width="6" height="6"/></g>
<g transform="translate(56,104) scale(1.3733333333333)"><rect width="6" height="6"/></g>
<g transform="translate(72,104) scale(1.3733333333333)"><rect width="6" height="6"/></g>
<g transform="translate(80,104) scale(1.3733333333333)"><rect width="6" height="6"/></g>
<g transform="translate(88,104) scale(1.3733333333333)"><rect width="6" height="6"/></g>
<g transform="translate(120,104) scale(1.3733333333333)"><rect width="6" height="6"/></g>
<g transform="translate(136,104) scale(1.3733333333333)"><rect width="6" height="6"/></g>
<g transform="translate(144,104) scale(1.3733333333333)"><rect width="6" height="6"/></g>
<g transform="translate(168,104) scale(1.3733333333333)"><rect width="6" height="6"/></g>
<g transform="translate(176,104) scale(1.3733333333333)"><rect width="6" height="6"/></g>
<g transform="translate(184,104) scale(1.3733333333333)"><rect width="6" height="6"/></g>
<g transform="translate(192,104) scale(1.3733333333333)"><rect width="6" height="6"/></g>
<g transform="translate(200,104) scale(1.3733333333333)"><rect width="6" height="6"/></g>
<g transform="translate(208,104) scale(1.3733333333333)"><rect width="6" height="6"/></g>
<g transform="translate(224,104) scale(1.3733333333333)"><rect width="6" height="6"/></g>
<g transform="translate(232,104) scale(1.3733333333333)"><rect width="6" height="6"/></g>
<g transform="translate(240,104) scale(1.3733333333333)"><rect width="6" height="6"/></g>
<g transform="translate(264,104) scale(1.3733333333333)"><rect width="6" height="6"/></g>
<g transform="translate(272,104) scale(1.3733333333333)"><rect width="6" height="6"/></g>
<g transform="translate(288,104) scale(1.3733333333333)"><rect width="6" height="6"/></g>
<g transform="translate(304,104) scale(1.3733333333333)"><rect width="6" height="6"/></g>
<g transform="translate(312,104) scale(1.3733333333333)"><rect width="6" height="6"/></g>
<g transform="translate(328,104) scale(1.3733333333333)"><rect width="6" height="6"/></g>
<g transform="translate(32,112) scale(1.3733333333333)"><rect width="6" height="6"/></g>
<g transform="translate(40,112) scale(1.3733333333333)"><rect width="6" height="6"/></g>
<g transform="translate(56,112) scale(1.3733333333333)"><rect width="6" height="6"/></g>
<g transform="translate(64,112) scale(1.3733333333333)"><rect width="6" height="6"/></g>
<g transform="translate(96,112) scale(1.3733333333333)"><rect width="6" height="6"/></g>
<g transform="translate(104,112) scale(1.3733333333333)"><rect width="6" height="6"/></g>
<g transform="translate(136,112) scale(1.3733333333333)"><rect width="6" height="6"/></g>
<g transform="translate(152,112) scale(1.3733333333333)"><rect width="6" height="6"/></g>
<g transform="translate(168,112) scale(1.3733333333333)"><rect width="6" height="6"/></g>
<g transform="translate(176,112) scale(1.3733333333333)"><rect width="6" height="6"/></g>
<g transform="translate(184,112) scale(1.3733333333333)"><rect width="6" height="6"/></g>
<g transform="translate(216,112) scale(1.3733333333333)"><rect width="6" height="6"/></g>
<g transform="translate(224,112) scale(1.3733333333333)"><rect width="6" height="6"/></g>
<g transform="translate(248,112) scale(1.3733333333333)"><rect width="6" height="6"/></g>
<g transform="translate(264,112) scale(1.3733333333333)"><rect width="6" height="6"/></g>
<g transform="translate(272,112) scale(1.3733333333333)"><rect width="6" height="6"/></g>
<g transform="translate(312,112) scale(1.3733333333333)"><rect width="6" height="6"/></g>
<g transform="translate(320,112) scale(1.3733333333333)"><rect width="6" height="6"/></g>
<g transform="translate(16,120) scale(1.3733333333333)"><rect width="6" height="6"/></g>
<g transform="translate(24,120) scale(1.3733333333333)"><rect width="6" height="6"/></g>
<g transform="translate(32,120) scale(1.3733333333333)"><rect width="6" height="6"/></g>
<g transform="translate(48,120) scale(1.3733333333333)"><rect width="6" height="6"/></g>
<g transform="translate(88,120) scale(1.3733333333333)"><rect width="6" height="6"/></g>
<g transform="translate(112,120) scale(1.3733333333333)"><rect width="6" height="6"/></g>
<g transform="translate(128,120) scale(1.3733333333333)"><rect width="6" height="6"/></g>
<g transform="translate(136,120) scale(1.3733333333333)"><rect width="6" height="6"/></g>
<g transform="translate(152,120) scale(1.3733333333333)"><rect width="6" height="6"/></g>
<g transform="translate(160,120) scale(1.3733333333333)"><rect width="6" height="6"/></g>
<g transform="translate(200,120) scale(1.3733333333333)"><rect width="6" height="6"/></g>
<g transform="translate(208,120) scale(1.3733333333333)"><rect width="6" height="6"/></g>
<g transform="translate(224,120) scale(1.3733333333333)"><rect width="6" height="6"/></g>
<g transform="translate(232,120) scale(1.3733333333333)"><rect width="6" height="6"/></g>
<g transform="translate(240,120) scale(1.3733333333333)"><rect width="6" height="6"/></g>
<g transform="translate(248,120) scale(1.3733333333333)"><rect width="6" height="6"/></g>
<g transform="translate(280,120) scale(1.3733333333333)"><rect width="6" height="6"/></g>
<g transform="translate(288,120) scale(1.3733333333333)"><rect width="6" height="6"/></g>
<g transform="translate(304,120) scale(1.3733333333333)"><rect width="6" height="6"/></g>
<g transform="translate(320,120) scale(1.3733333333333)"><rect width="6" height="6"/></g>
<g transform="translate(328,120) scale(1.3733333333333)"><rect width="6" height="6"/></g>
<g transform="translate(336,120) scale(1.3733333333333)"><rect width="6" height="6"/></g>
<g transform="translate(32,128) scale(1.3733333333333)"><rect width="6" height="6"/></g>
<g transform="translate(64,128) scale(1.3733333333333)"><rect width="6" height="6"/></g>
<g transform="translate(96,128) scale(1.3733333333333)"><rect width="6" height="6"/></g>
<g transform="translate(144,128) scale(1.3733333333333)"><rect width="6" height="6"/></g>
<g transform="translate(160,128) scale(1.3733333333333)"><rect width="6" height="6"/></g>
<g transform="translate(168,128) scale(1.3733333333333)"><rect width="6" height="6"/></g>
<g transform="translate(184,128) scale(1.3733333333333)"><rect width="6" height="6"/></g>
<g transform="translate(248,128) scale(1.3733333333333)"><rect width="6" height="6"/></g>
<g transform="translate(272,128) scale(1.3733333333333)"><rect width="6" height="6"/></g>
<g transform="translate(280,128) scale(1.3733333333333)"><rect width="6" height="6"/></g>
<g transform="translate(296,128) scale(1.3733333333333)"><rect width="6" height="6"/></g>
<g transform="translate(304,128) scale(1.3733333333333)"><rect width="6" height="6"/></g>
<g transform="translate(312,128) scale(1.3733333333333)"><rect width="6" height="6"/></g>
<g transform="translate(16,136) scale(1.3733333333333)"><rect width="6" height="6"/></g>
<g transform="translate(40,136) scale(1.3733333333333)"><rect width="6" height="6"/></g>
<g transform="translate(56,136) scale(1.3733333333333)"><rect width="6" height="6"/></g>
<g transform="translate(72,136) scale(1.3733333333333)"><rect width="6" height="6"/></g>
<g transform="translate(80,136) scale(1.3733333333333)"><rect width="6" height="6"/></g>
<g transform="translate(88,136) scale(1.3733333333333)"><rect width="6" height="6"/></g>
<g transform="translate(112,136) scale(1.3733333333333)"><rect width="6" height="6"/></g>
<g transform="translate(128,136) scale(1.3733333333333)"><rect width="6" height="6"/></g>
<g transform="translate(136,136) scale(1.3733333333333)"><rect width="6" height="6"/></g>
<g transform="translate(152,136) scale(1.3733333333333)"><rect width="6" height="6"/></g>
<g transform="translate(160,136) scale(1.3733333333333)"><rect width="6" height="6"/></g>
<g transform="translate(168,136) scale(1.3733333333333)"><rect width="6" height="6"/></g>
<g transform="translate(176,136) scale(1.3733333333333)"><rect width="6" height="6"/></g>
<g transform="translate(192,136) scale(1.3733333333333)"><rect width="6" height="6"/></g>
<g transform="translate(208,136) scale(1.3733333333333)"><rect width="6" height="6"/></g>
<g transform="translate(216,136) scale(1.3733333333333)"><rect width="6" height="6"/></g>
<g transform="translate(224,136) scale(1.3733333333333)"><rect width="6" height="6"/></g>
<g transform="translate(240,136) scale(1.3733333333333)"><rect width="6" height="6"/></g>
<g transform="translate(272,136) scale(1.3733333333333)"><rect width="6" height="6"/></g>
<g transform="translate(288,136) scale(1.3733333333333)"><rect width="6" height="6"/></g>
<g transform="translate(304,136) scale(1.3733333333333)"><rect width="6" height="6"/></g>
<g transform="translate(312,136) scale(1.3733333333333)"><rect width="6" height="6"/></g>
<g transform="translate(328,136) scale(1.3733333333333)"><rect width="6" height="6"/></g>
<g transform="translate(16,144) scale(1.3733333333333)"><rect width="6" height="6"/></g>
<g transform="translate(24,144) scale(1.3733333333333)"><rect width="6" height="6"/></g>
<g transform="translate(32,144) scale(1.3733333333333)"><rect width="6" height="6"/></g>
<g transform="translate(48,144) scale(1.3733333333333)"><rect width="6" height="6"/></g>
<g transform="translate(64,144) scale(1.3733333333333)"><rect width="6" height="6"/></g>
<g transform="translate(72,144) scale(1.3733333333333)"><rect width="6" height="6"/></g>
<g transform="translate(80,144) scale(1.3733333333333)"><rect width="6" height="6"/></g>
<g transform="translate(88,144) scale(1.3733333333333)"><rect width="6" height="6"/></g>
<g transform="translate(96,144) scale(1.3733333333333)"><rect width="6" height="6"/></g>
<g transform="translate(104,144) scale(1.3733333333333)"><rect width="6" height="6"/></g>
<g transform="translate(120,144) scale(1.3733333333333)"><rect width="6" height="6"/></g>
<g transform="translate(144,144) scale(1.3733333333333)"><rect width="6" height="6"/></g>
<g transform="translate(160,144) scale(1.3733333333333)"><rect width="6" height="6"/></g>
<g transform="translate(176,144) scale(1.3733333333333)"><rect width="6" height="6"/></g>
<g transform="translate(200,144) scale(1.3733333333333)"><rect width="6" height="6"/></g>
<g transform="translate(224,144) scale(1.3733333333333)"><rect width="6" height="6"/></g>
<g transform="translate(248,144) scale(1.3733333333333)"><rect width="6" height="6"/></g>
<g transform="translate(264,144) scale(1.3733333333333)"><rect width="6" height="6"/></g>
<g transform="translate(280,144) scale(1.3733333333333)"><rect width="6" height="6"/></g>
<g transform="translate(296,144) scale(1.3733333333333)"><rect width="6" height="6"/></g>
<g transform="translate(312,144) scale(1.3733333333333)"><rect width="6" height="6"/></g>
<g transform="translate(320,144) scale(1.3733333333333)"><rect width="6" height="6"/></g>
<g transform="translate(32,152) scale(1.3733333333333)"><rect width="6" height="6"/></g>
<g transform="translate(48,152) scale(1.3733333333333)"><rect width="6" height="6"/></g>
<g transform="translate(72,152) scale(1.3733333333333)"><rect width="6" height="6"/></g>
<g transform="translate(88,152) scale(1.3733333333333)"><rect width="6" height="6"/></g>
<g transform="translate(96,152) scale(1.3733333333333)"><rect width="6" height="6"/></g>
<g transform="translate(104,152) scale(1.3733333333333)"><rect width="6" height="6"/></g>
<g transform="translate(128,152) scale(1.3733333333333)"><rect width="6" height="6"/></g>
<g transform="translate(136,152) scale(1.3733333333333)"><rect width="6" height="6"/></g>
<g transform="translate(152,152) scale(1.3733333333333)"><rect width="6" height="6"/></g>
<g transform="translate(160,152) scale(1.3733333333333)"><rect width="6" height="6"/></g>
<g transform="translate(200,152) scale(1.3733333333333)"><rect width="6" height="6"/></g>
<g transform="translate(208,152) scale(1.3733333333333)"><rect width="6" height="6"/></g>
<g transform="translate(240,152) scale(1.3733333333333)"><rect width="6" height="6"/></g>
<g transform="translate(256,152) scale(1.3733333333333)"><rect width="6" height="6"/></g>
<g transform="translate(264,152) scale(1.3733333333333)"><rect width="6" height="6"/></g>
<g transform="translate(272,152) scale(1.3733333333333)"><rect width="6" height="6"/></g>
<g transform="translate(288,152) scale(1.3733333333333)"><rect width="6" height="6"/></g>
<g transform="translate(296,152) scale(1.3733333333333)"><rect width="6" height="6"/></g>
<g transform="translate(304,152) scale(1.3733333333333)"><rect width="6" height="6"/></g>
<g transform="translate(320,152) scale(1.3733333333333)"><rect width="6" height="6"/></g>
<g transform="translate(328,152) scale(1.3733333333333)"><rect width="6" height="6"/></g>
<g transform="translate(336,152) scale(1.3733333333333)"><rect width="6" height="6"/></g>
<g transform="translate(32,160) scale(1.3733333333333)"><rect width="6" height="6"/></g>
<g transform="translate(48,160) scale(1.3733333333333)"><rect width="6" height="6"/></g>
<g transform="translate(64,160) scale(1.3733333333333)"><rect width="6" height="6"/></g>
<g transform="translate(96,160) scale(1.3733333333333)"><rect width="6" height="6"/></g>
<g transform="translate(120,160) scale(1.3733333333333)"><rect width="6" height="6"/></g>
<g transform="translate(136,160) scale(1.3733333333333)"><rect width="6" height="6"/></g>
<g transform="translate(152,160) scale(1.3733333333333)"><rect width="6" height="6"/></g>
<g transform="translate(160,160) scale(1.3733333333333)"><rect width="6" height="6"/></g>
<g transform="translate(184,160) scale(1.3733333333333)"><rect width="6" height="6"/></g>
<g transform="translate(192,160) scale(1.3733333333333)"><rect width="6" height="6"/></g>
<g transform="translate(208,160) scale(1.3733333333333)"><rect width="6" height="6"/></g>
<g transform="translate(232,160) scale(1.3733333333333)"><rect width="6" height="6"/></g>
<g transform="translate(256,160) scale(1.3733333333333)"><rect width="6" height="6"/></g>
<g transform="translate(272,160) scale(1.3733333333333)"><rect width="6" height="6"/></g>
<g transform="translate(288,160) scale(1.3733333333333)"><rect width="6" height="6"/></g>
<g transform="translate(304,160) scale(1.3733333333333)"><rect width="6" height="6"/></g>
<g transform="translate(312,160) scale(1.3733333333333)"><rect width="6" height="6"/></g>
<g transform="translate(16,168) scale(1.3733333333333)"><rect width="6" height="6"/></g>
<g transform="translate(32,168) scale(1.3733333333333)"><rect width="6" height="6"/></g>
<g transform="translate(40,168) scale(1.3733333333333)"><rect width="6" height="6"/></g>
<g transform="translate(48,168) scale(1.3733333333333)"><rect width="6" height="6"/></g>
<g transform="translate(72,168) scale(1.3733333333333)"><rect width="6" height="6"/></g>
<g transform="translate(88,168) scale(1.3733333333333)"><rect width="6" height="6"/></g>
<g transform="translate(152,168) scale(1.3733333333333)"><rect width="6" height="6"/></g>
<g transform="translate(168,168) scale(1.3733333333333)"><rect width="6" height="6"/></g>
<g transform="translate(176,168) scale(1.3733333333333)"><rect width="6" height="6"/></g>
<g transform="translate(184,168) scale(1.3733333333333)"><rect width="6" height="6"/></g>
<g transform="translate(200,168) scale(1.3733333333333)"><rect width="6" height="6"/></g>
<g transform="translate(208,168) scale(1.3733333333333)"><rect width="6" height="6"/></g>
<g transform="translate(224,168) scale(1.3733333333333)"><rect width="6" height="6"/></g>
<g transform="translate(256,168) scale(1.3733333333333)"><rect width="6" height="6"/></g>
<g transform="translate(264,168) scale(1.3733333333333)"><rect width="6" height="6"/></g>
<g transform="translate(272,168) scale(1.3733333333333)"><rect width="6" height="6"/></g>
<g transform="translate(280,168) scale(1.3733333333333)"><rect width="6" height="6"/></g>
<g transform="translate(288,168) scale(1.3733333333333)"><rect width="6" height="6"/></g>
<g transform="translate(304,168) scale(1.3733333333333)"><rect width="6" height="6"/></g>
<g transform="translate(312,168) scale(1.3733333333333)"><rect width="6" height="6"/></g>
<g transform="translate(16,176) scale(1.3733333333333)"><rect width="6" height="6"/></g>
<g transform="translate(40,176) scale(1.3733333333333)"><rect width="6" height="6"/></g>
<g transform="translate(48,176) scale(1.3733333333333)"><rect width="6" height="6"/></g>
<g transform="translate(56,176) scale(1.3733333333333)"><rect width="6" height="6"/></g>
<g transform="translate(64,176) scale(1.3733333333333)"><rect width="6" height="6"/></g>
<g transform="translate(96,176) scale(1.3733333333333)"><rect width="6" height="6"/></g>
<g transform="translate(112,176) scale(1.3733333333333)"><rect width="6" height="6"/></g>
<g transform="translate(120,176) scale(1.3733333333333)"><rect width="6" height="6"/></g>
<g transform="translate(128,176) scale(1.3733333333333)"><rect width="6" height="6"/></g>
<g transform="translate(136,176) scale(1.3733333333333)"><rect width="6" height="6"/></g>
<g transform="translate(144,176) scale(1.3733333333333)"><rect width="6" height="6"/></g>
<g transform="translate(160,176) scale(1.3733333333333)"><rect width="6" height="6"/></g>
<g transform="translate(192,176) scale(1.3733333333333)"><rect width="6" height="6"/></g>
<g transform="translate(208,176) scale(1.3733333333333)"><rect width="6" height="6"/></g>
<g transform="translate(232,176) scale(1.3733333333333)"><rect width="6" height="6"/></g>
<g transform="translate(248,176) scale(1.3733333333333)"><rect width="6" height="6"/></g>
<g transform="translate(264,176) scale(1.3733333333333)"><rect width="6" height="6"/></g>
<g transform="translate(296,176) scale(1.3733333333333)"><rect width="6" height="6"/></g>
<g transform="translate(304,176) scale(1.3733333333333)"><rect width="6" height="6"/></g>
<g transform="translate(312,176) scale(1.3733333333333)"><rect width="6" height="6"/></g>
<g transform="translate(320,176) scale(1.3733333333333)"><rect width="6" height="6"/></g>
<g transform="translate(336,176) scale(1.3733333333333)"><rect width="6" height="6"/></g>
<g transform="translate(24,184) scale(1.3733333333333)"><rect width="6" height="6"/></g>
<g transform="translate(32,184) scale(1.3733333333333)"><rect width="6" height="6"/></g>
<g transform="translate(40,184) scale(1.3733333333333)"><rect width="6" height="6"/></g>
<g transform="translate(56,184) scale(1.3733333333333)"><rect width="6" height="6"/></g>
<g transform="translate(72,184) scale(1.3733333333333)"><rect width="6" height="6"/></g>
<g transform="translate(80,184) scale(1.3733333333333)"><rect width="6" height="6"/></g>
<g transform="translate(88,184) scale(1.3733333333333)"><rect width="6" height="6"/></g>
<g transform="translate(96,184) scale(1.3733333333333)"><rect width="6" height="6"/></g>
<g transform="translate(112,184) scale(1.3733333333333)"><rect width="6" height="6"/></g>
<g transform="translate(120,184) scale(1.3733333333333)"><rect width="6" height="6"/></g>
<g transform="translate(136,184) scale(1.3733333333333)"><rect width="6" height="6"/></g>
<g transform="translate(144,184) scale(1.3733333333333)"><rect width="6" height="6"/></g>
<g transform="translate(184,184) scale(1.3733333333333)"><rect width="6" height="6"/></g>
<g transform="translate(192,184) scale(1.3733333333333)"><rect width="6" height="6"/></g>
<g transform="translate(200,184) scale(1.3733333333333)"><rect width="6" height="6"/></g>
<g transform="translate(208,184) scale(1.3733333333333)"><rect width="6" height="6"/></g>
<g transform="translate(240,184) scale(1.3733333333333)"><rect width="6" height="6"/></g>
<g transform="translate(264,184) scale(1.3733333333333)"><rect width="6" height="6"/></g>
<g transform="translate(288,184) scale(1.3733333333333)"><rect width="6" height="6"/></g>
<g transform="translate(296,184) scale(1.3733333333333)"><rect width="6" height="6"/></g>
<g transform="translate(304,184) scale(1.3733333333333)"><rect width="6" height="6"/></g>
<g transform="translate(320,184) scale(1.3733333333333)"><rect width="6" height="6"/></g>
<g transform="translate(328,184) scale(1.3733333333333)"><rect width="6" height="6"/></g>
<g transform="translate(336,184) scale(1.3733333333333)"><rect width="6" height="6"/></g>
<g transform="translate(24,192) scale(1.3733333333333)"><rect width="6" height="6"/></g>
<g transform="translate(32,192) scale(1.3733333333333)"><rect width="6" height="6"/></g>
<g transform="translate(48,192) scale(1.3733333333333)"><rect width="6" height="6"/></g>
<g transform="translate(56,192) scale(1.3733333333333)"><rect width="6" height="6"/></g>
<g transform="translate(64,192) scale(1.3733333333333)"><rect width="6" height="6"/></g>
<g transform="translate(72,192) scale(1.3733333333333)"><rect width="6" height="6"/></g>
<g transform="translate(80,192) scale(1.3733333333333)"><rect width="6" height="6"/></g>
<g transform="translate(104,192) scale(1.3733333333333)"><rect width="6" height="6"/></g>
<g transform="translate(112,192) scale(1.3733333333333)"><rect width="6" height="6"/></g>
<g transform="translate(136,192) scale(1.3733333333333)"><rect width="6" height="6"/></g>
<g transform="translate(144,192) scale(1.3733333333333)"><rect width="6" height="6"/></g>
<g transform="translate(152,192) scale(1.3733333333333)"><rect width="6" height="6"/></g>
<g transform="translate(160,192) scale(1.3733333333333)"><rect width="6" height="6"/></g>
<g transform="translate(176,192) scale(1.3733333333333)"><rect width="6" height="6"/></g>
<g transform="translate(192,192) scale(1.3733333333333)"><rect width="6" height="6"/></g>
<g transform="translate(200,192) scale(1.3733333333333)"><rect width="6" height="6"/></g>
<g transform="translate(208,192) scale(1.3733333333333)"><rect width="6" height="6"/></g>
<g transform="translate(224,192) scale(1.3733333333333)"><rect width="6" height="6"/></g>
<g transform="translate(232,192) scale(1.3733333333333)"><rect width="6" height="6"/></g>
<g transform="translate(248,192) scale(1.3733333333333)"><rect width="6" height="6"/></g>
<g transform="translate(256,192) scale(1.3733333333333)"><rect width="6" height="6"/></g>
<g transform="translate(272,192) scale(1.3733333333333)"><rect width="6" height="6"/></g>
<g transform="translate(312,192) scale(1.3733333333333)"><rect width="6" height="6"/></g>
<g transform="translate(16,200) scale(1.3733333333333)"><rect width="6" height="6"/></g>
<g transform="translate(24,200) scale(1.3733333333333)"><rect width="6" height="6"/></g>
<g transform="translate(40,200) scale(1.3733333333333)"><rect width="6" height="6"/></g>
<g transform="translate(48,200) scale(1.3733333333333)"><rect width="6" height="6"/></g>
<g transform="translate(56,200) scale(1.3733333333333)"><rect width="6" height="6"/></g>
<g transform="translate(88,200) scale(1.3733333333333)"><rect width="6" height="6"/></g>
<g transform="translate(104,200) scale(1.3733333333333)"><rect width="6" height="6"/></g>
<g transform="translate(120,200) scale(1.3733333333333)"><rect width="6" height="6"/></g>
<g transform="translate(144,200) scale(1.3733333333333)"><rect width="6" height="6"/></g>
<g transform="translate(152,200) scale(1.3733333333333)"><rect width="6" height="6"/></g>
<g transform="translate(176,200) scale(1.3733333333333)"><rect width="6" height="6"/></g>
<g transform="translate(192,200) scale(1.3733333333333)"><rect width="6" height="6"/></g>
<g transform="translate(216,200) scale(1.3733333333333)"><rect width="6" height="6"/></g>
<g transform="translate(224,200) scale(1.3733333333333)"><rect width="6" height="6"/></g>
<g transform="translate(232,200) scale(1.3733333333333)"><rect width="6" height="6"/></g>
<g transform="translate(240,200) scale(1.3733333333333)"><rect width="6" height="6"/></g>
<g transform="translate(256,200) scale(1.3733333333333)"><rect width="6" height="6"/></g>
<g transform="translate(272,200) scale(1.3733333333333)"><rect width="6" height="6"/></g>
<g transform="translate(280,200) scale(1.3733333333333)"><rect width="6" height="6"/></g>
<g transform="translate(296,200) scale(1.3733333333333)"><rect width="6" height="6"/></g>
<g transform="translate(312,200) scale(1.3733333333333)"><rect width="6" height="6"/></g>
<g transform="translate(328,200) scale(1.3733333333333)"><rect width="6" height="6"/></g>
<g transform="translate(16,208) scale(1.3733333333333)"><rect width="6" height="6"/></g>
<g transform="translate(32,208) scale(1.3733333333333)"><rect width="6" height="6"/></g>
<g transform="translate(56,208) scale(1.3733333333333)"><rect width="6" height="6"/></g>
<g transform="translate(64,208) scale(1.3733333333333)"><rect width="6" height="6"/></g>
<g transform="translate(88,208) scale(1.3733333333333)"><rect width="6" height="6"/></g>
<g transform="translate(96,208) scale(1.3733333333333)"><rect width="6" height="6"/></g>
<g transform="translate(160,208) scale(1.3733333333333)"><rect width="6" height="6"/></g>
<g transform="translate(176,208) scale(1.3733333333333)"><rect width="6" height="6"/></g>
<g transform="translate(200,208) scale(1.3733333333333)"><rect width="6" height="6"/></g>
<g transform="translate(208,208) scale(1.3733333333333)"><rect width="6" height="6"/></g>
<g transform="translate(216,208) scale(1.3733333333333)"><rect width="6" height="6"/></g>
<g transform="translate(224,208) scale(1.3733333333333)"><rect width="6" height="6"/></g>
<g transform="translate(232,208) scale(1.3733333333333)"><rect width="6" height="6"/></g>
<g transform="translate(248,208) scale(1.3733333333333)"><rect width="6" height="6"/></g>
<g transform="translate(320,208) scale(1.3733333333333)"><rect width="6" height="6"/></g>
<g transform="translate(16,216) scale(1.3733333333333)"><rect width="6" height="6"/></g>
<g transform="translate(24,216) scale(1.3733333333333)"><rect width="6" height="6"/></g>
<g transform="translate(32,216) scale(1.3733333333333)"><rect width="6" height="6"/></g>
<g transform="translate(40,216) scale(1.3733333333333)"><rect width="6" height="6"/></g>
<g transform="translate(48,216) scale(1.3733333333333)"><rect width="6" height="6"/></g>
<g transform="translate(72,216) scale(1.3733333333333)"><rect width="6" height="6"/></g>
<g transform="translate(88,216) scale(1.3733333333333)"><rect width="6" height="6"/></g>
<g transform="translate(104,216) scale(1.3733333333333)"><rect width="6" height="6"/></g>
<g transform="translate(120,216) scale(1.3733333333333)"><rect width="6" height="6"/></g>
<g transform="translate(128,216) scale(1.3733333333333)"><rect width="6" height="6"/></g>
<g transform="translate(136,216) scale(1.3733333333333)"><rect width="6" height="6"/></g>
<g transform="translate(168,216) scale(1.3733333333333)"><rect width="6" height="6"/></g>
<g transform="translate(192,216) scale(1.3733333333333)"><rect width="6" height="6"/></g>
<g transform="translate(216,216) scale(1.3733333333333)"><rect width="6" height="6"/></g>
<g transform="translate(224,216) scale(1.3733333333333)"><rect width="6" height="6"/></g>
<g transform="translate(240,216) scale(1.3733333333333)"><rect width="6" height="6"/></g>
<g transform="translate(256,216) scale(1.3733333333333)"><rect width="6" height="6"/></g>
<g transform="translate(264,216) scale(1.3733333333333)"><rect width="6" height="6"/></g>
<g transform="translate(280,216) scale(1.3733333333333)"><rect width="6" height="6"/></g>
<g transform="translate(288,216) scale(1.3733333333333)"><rect width="6" height="6"/></g>
<g transform="translate(296,216) scale(1.3733333333333)"><rect width="6" height="6"/></g>
<g transform="translate(304,216) scale(1.3733333333333)"><rect width="6" height="6"/></g>
<g transform="translate(312,216) scale(1.3733333333333)"><rect width="6" height="6"/></g>
<g transform="translate(336,216) scale(1.3733333333333)"><rect width="6" height="6"/></g>
<g transform="translate(32,224) scale(1.3733333333333)"><rect width="6" height="6"/></g>
<g transform="translate(40,224) scale(1.3733333333333)"><rect width="6" height="6"/></g>
<g transform="translate(48,224) scale(1.3733333333333)"><rect width="6" height="6"/></g>
<g transform="translate(56,224) scale(1.3733333333333)"><rect width="6" height="6"/></g>
<g transform="translate(64,224) scale(1.3733333333333)"><rect width="6" height="6"/></g>
<g transform="translate(80,224) scale(1.3733333333333)"><rect width="6" height="6"/></g>
<g transform="translate(88,224) scale(1.3733333333333)"><rect width="6" height="6"/></g>
<g transform="translate(104,224) scale(1.3733333333333)"><rect width="6" height="6"/></g>
<g transform="translate(120,224) scale(1.3733333333333)"><rect width="6" height="6"/></g>
<g transform="translate(136,224) scale(1.3733333333333)"><rect width="6" height="6"/></g>
<g transform="translate(144,224) scale(1.3733333333333)"><rect width="6" height="6"/></g>
<g transform="translate(160,224) scale(1.3733333333333)"><rect width="6" height="6"/></g>
<g transform="translate(168,224) scale(1.3733333333333)"><rect width="6" height="6"/></g>
<g transform="translate(192,224) scale(1.3733333333333)"><rect width="6" height="6"/></g>
<g transform="translate(200,224) scale(1.3733333333333)"><rect width="6" height="6"/></g>
<g transform="translate(216,224) scale(1.3733333333333)"><rect width="6" height="6"/></g>
<g transform="translate(232,224) scale(1.3733333333333)"><rect width="6" height="6"/></g>
<g transform="translate(240,224) scale(1.3733333333333)"><rect width="6" height="6"/></g>
<g transform="translate(272,224) scale(1.3733333333333)"><rect width="6" height="6"/></g>
<g transform="translate(280,224) scale(1.3733333333333)"><rect width="6" height="6"/></g>
<g transform="translate(288,224) scale(1.3733333333333)"><rect width="6" height="6"/></g>
<g transform="translate(296,224) scale(1.3733333333333)"><rect width="6" height="6"/></g>
<g transform="translate(304,224) scale(1.3733333333333)"><rect width="6" height="6"/></g>
<g transform="translate(32,232) scale(1.3733333333333)"><rect width="6" height="6"/></g>
<g transform="translate(72,232) scale(1.3733333333333)"><rect width="6" height="6"/></g>
<g transform="translate(80,232) scale(1.3733333333333)"><rect width="6" height="6"/></g>
<g transform="translate(88,232) scale(1.3733333333333)"><rect width="6" height="6"/></g>
<g transform="translate(104,232) scale(1.3733333333333)"><rect width="6" height="6"/></g>
<g transform="translate(120,232) scale(1.3733333333333)"><rect width="6" height="6"/></g>
<g transform="translate(168,232) scale(1.3733333333333)"><rect width="6" height="6"/></g>
<g transform="translate(176,232) scale(1.3733333333333)"><rect width="6" height="6"/></g>
<g transform="translate(184,232) scale(1.3733333333333)"><rect width="6" height="6"/></g>
<g transform="translate(200,232) scale(1.3733333333333)"><rect width="6" height="6"/></g>
<g transform="translate(216,232) scale(1.3733333333333)"><rect width="6" height="6"/></g>
<g transform="translate(224,232) scale(1.3733333333333)"><rect width="6" height="6"/></g>
<g transform="translate(232,232) scale(1.3733333333333)"><rect width="6" height="6"/></g>
<g transform="translate(240,232) scale(1.3733333333333)"><rect width="6" height="6"/></g>
<g transform="translate(264,232) scale(1.3733333333333)"><rect width="6" height="6"/></g>
<g transform="translate(272,232) scale(1.3733333333333)"><rect width="6" height="6"/></g>
<g transform="translate(296,232) scale(1.3733333333333)"><rect width="6" height="6"/></g>
<g transform="translate(304,232) scale(1.3733333333333)"><rect width="6" height="6"/></g>
<g transform="translate(312,232) scale(1.3733333333333)"><rect width="6" height="6"/></g>
<g transform="translate(336,232) scale(1.3733333333333)"><rect width="6" height="6"/></g>
<g transform="translate(24,240) scale(1.3733333333333)"><rect width="6" height="6"/></g>
<g transform="translate(32,240) scale(1.3733333333333)"><rect width="6" height="6"/></g>
<g transform="translate(48,240) scale(1.3733333333333)"><rect width="6" height="6"/></g>
<g transform="translate(56,240) scale(1.3733333333333)"><rect width="6" height="6"/></g>
<g transform="translate(64,240) scale(1.3733333333333)"><rect width="6" height="6"/></g>
<g transform="translate(72,240) scale(1.3733333333333)"><rect width="6" height="6"/></g>
<g transform="translate(104,240) scale(1.3733333333333)"><rect width="6" height="6"/></g>
<g transform="translate(120,240) scale(1.3733333333333)"><rect width="6" height="6"/></g>
<g transform="translate(128,240) scale(1.3733333333333)"><rect width="6" height="6"/></g>
<g transform="translate(144,240) scale(1.3733333333333)"><rect width="6" height="6"/></g>
<g transform="translate(160,240) scale(1.3733333333333)"><rect width="6" height="6"/></g>
<g transform="translate(168,240) scale(1.3733333333333)"><rect width="6" height="6"/></g>
<g transform="translate(176,240) scale(1.3733333333333)"><rect width="6" height="6"/></g>
<g transform="translate(184,240) scale(1.3733333333333)"><rect width="6" height="6"/></g>
<g transform="translate(200,240) scale(1.3733333333333)"><rect width="6" height="6"/></g>
<g transform="translate(208,240) scale(1.3733333333333)"><rect width="6" height="6"/></g>
<g transform="translate(216,240) scale(1.3733333333333)"><rect width="6" height="6"/></g>
<g transform="translate(232,240) scale(1.3733333333333)"><rect width="6" height="6"/></g>
<g transform="translate(248,240) scale(1.3733333333333)"><rect width="6" height="6"/></g>
<g transform="translate(264,240) scale(1.3733333333333)"><rect width="6" height="6"/></g>
<g transform="translate(272,240) scale(1.3733333333333)"><rect width="6" height="6"/></g>
<g transform="translate(312,240) scale(1.3733333333333)"><rect width="6" height="6"/></g>
<g transform="translate(320,240) scale(1.3733333333333)"><rect width="6" height="6"/></g>
<g transform="translate(328,240) scale(1.3733333333333)"><rect width="6" height="6"/></g>
<g transform="translate(16,248) scale(1.3733333333333)"><rect width="6" height="6"/></g>
<g transform="translate(32,248) scale(1.3733333333333)"><rect width="6" height="6"/></g>
<g transform="translate(40,248) scale(1.3733333333333)"><rect width="6" height="6"/></g>
<g transform="translate(48,248) scale(1.3733333333333)"><rect width="6" height="6"/></g>
<g transform="translate(72,248) scale(1.3733333333333)"><rect width="6" height="6"/></g>
<g transform="translate(80,248) scale(1.3733333333333)"><rect width="6" height="6"/></g>
<g transform="translate(88,248) scale(1.3733333333333)"><rect width="6" height="6"/></g>
<g transform="translate(96,248) scale(1.3733333333333)"><rect width="6" height="6"/></g>
<g transform="translate(104,248) scale(1.3733333333333)"><rect width="6" height="6"/></g>
<g transform="translate(112,248) scale(1.3733333333333)"><rect width="6" height="6"/></g>
<g transform="translate(128,248) scale(1.3733333333333)"><rect width="6" height="6"/></g>
<g transform="translate(136,248) scale(1.3733333333333)"><rect width="6" height="6"/></g>
<g transform="translate(152,248) scale(1.3733333333333)"><rect width="6" height="6"/></g>
<g transform="translate(160,248) scale(1.3733333333333)"><rect width="6" height="6"/></g>
<g transform="translate(168,248) scale(1.3733333333333)"><rect width="6" height="6"/></g>
<g transform="translate(200,248) scale(1.3733333333333)"><rect width="6" height="6"/></g>
<g transform="translate(208,248) scale(1.3733333333333)"><rect width="6" height="6"/></g>
<g transform="translate(232,248) scale(1.3733333333333)"><rect width="6" height="6"/></g>
<g transform="translate(256,248) scale(1.3733333333333)"><rect width="6" height="6"/></g>
<g transform="translate(264,248) scale(1.3733333333333)"><rect width="6" height="6"/></g>
<g transform="translate(280,248) scale(1.3733333333333)"><rect width="6" height="6"/></g>
<g transform="translate(288,248) scale(1.3733333333333)"><rect width="6" height="6"/></g>
<g transform="translate(296,248) scale(1.3733333333333)"><rect width="6" height="6"/></g>
<g transform="translate(304,248) scale(1.3733333333333)"><rect width="6" height="6"/></g>
<g transform="translate(328,248) scale(1.3733333333333)"><rect width="6" height="6"/></g>
<g transform="translate(336,248) scale(1.3733333333333)"><rect width="6" height="6"/></g>
<g transform="translate(16,256) scale(1.3733333333333)"><rect width="6" height="6"/></g>
<g transform="translate(64,256) scale(1.3733333333333)"><rect width="6" height="6"/></g>
<g transform="translate(80,256) scale(1.3733333333333)"><rect width="6" height="6"/></g>
<g transform="translate(88,256) scale(1.3733333333333)"><rect width="6" height="6"/></g>
<g transform="translate(104,256) scale(1.3733333333333)"><rect width="6" height="6"/></g>
<g transform="translate(120,256) scale(1.3733333333333)"><rect width="6" height="6"/></g>
<g transform="translate(128,256) scale(1.3733333333333)"><rect width="6" height="6"/></g>
<g transform="translate(168,256) scale(1.3733333333333)"><rect width="6" height="6"/></g>
<g transform="translate(176,256) scale(1.3733333333333)"><rect width="6" height="6"/></g>
<g transform="translate(200,256) scale(1.3733333333333)"><rect width="6" height="6"/></g>
<g transform="translate(208,256) scale(1.3733333333333)"><rect width="6" height="6"/></g>
<g transform="translate(216,256) scale(1.3733333333333)"><rect width="6" height="6"/></g>
<g transform="translate(224,256) scale(1.3733333333333)"><rect width="6" height="6"/></g>
<g transform="translate(232,256) scale(1.3733333333333)"><rect width="6" height="6"/></g>
<g transform="translate(280,256) scale(1.3733333333333)"><rect width="6" height="6"/></g>
<g transform="translate(288,256) scale(1.3733333333333)"><rect width="6" height="6"/></g>
<g transform="translate(296,256) scale(1.3733333333333)"><rect width="6" height="6"/></g>
<g transform="translate(304,256) scale(1.3733333333333)"><rect width="6" height="6"/></g>
<g transform="translate(320,256) scale(1.3733333333333)"><rect width="6" height="6"/></g>
<g transform="translate(16,264) scale(1.3733333333333)"><rect width="6" height="6"/></g>
<g transform="translate(32,264) scale(1.3733333333333)"><rect width="6" height="6"/></g>
<g transform="translate(40,264) scale(1.3733333333333)"><rect width="6" height="6"/></g>
<g transform="translate(56,264) scale(1.3733333333333)"><rect width="6" height="6"/></g>
<g transform="translate(72,264) scale(1.3733333333333)"><rect width="6" height="6"/></g>
<g transform="translate(80,264) scale(1.3733333333333)"><rect width="6" height="6"/></g>
<g transform="translate(96,264) scale(1.3733333333333)"><rect width="6" height="6"/></g>
<g transform="translate(112,264) scale(1.3733333333333)"><rect width="6" height="6"/></g>
<g transform="translate(160,264) scale(1.3733333333333)"><rect width="6" height="6"/></g>
<g transform="translate(184,264) scale(1.3733333333333)"><rect width="6" height="6"/></g>
<g transform="translate(216,264) scale(1.3733333333333)"><rect width="6" height="6"/></g>
<g transform="translate(224,264) scale(1.3733333333333)"><rect width="6" height="6"/></g>
<g transform="translate(232,264) scale(1.3733333333333)"><rect width="6" height="6"/></g>
<g transform="translate(256,264) scale(1.3733333333333)"><rect width="6" height="6"/></g>
<g transform="translate(272,264) scale(1.3733333333333)"><rect width="6" height="6"/></g>
<g transform="translate(280,264) scale(1.3733333333333)"><rect width="6" height="6"/></g>
<g transform="translate(288,264) scale(1.3733333333333)"><rect width="6" height="6"/></g>
<g transform="translate(296,264) scale(1.3733333333333)"><rect width="6" height="6"/></g>
<g transform="translate(304,264) scale(1.3733333333333)"><rect width="6" height="6"/></g>
<g transform="translate(312,264) scale(1.3733333333333)"><rect width="6" height="6"/></g>
<g transform="translate(16,272) scale(1.3733333333333)"><rect width="6" height="6"/></g>
<g transform="translate(32,272) scale(1.3733333333333)"><rect width="6" height="6"/></g>
<g transform="translate(64,272) scale(1.3733333333333)"><rect width="6" height="6"/></g>
<g transform="translate(72,272) scale(1.3733333333333)"><rect width="6" height="6"/></g>
<g transform="translate(80,272) scale(1.3733333333333)"><rect width="6" height="6"/></g>
<g transform="translate(88,272) scale(1.3733333333333)"><rect width="6" height="6"/></g>
<g transform="translate(96,272) scale(1.3733333333333)"><rect width="6" height="6"/></g>
<g transform="translate(128,272) scale(1.3733333333333)"><rect width="6" height="6"/></g>
<g transform="translate(144,272) scale(1.3733333333333)"><rect width="6" height="6"/></g>
<g transform="translate(160,272) scale(1.3733333333333)"><rect width="6" height="6"/></g>
<g transform="translate(176,272) scale(1.3733333333333)"><rect width="6" height="6"/></g>
<g transform="translate(184,272) scale(1.3733333333333)"><rect width="6" height="6"/></g>
<g transform="translate(192,272) scale(1.3733333333333)"><rect width="6" height="6"/></g>
<g transform="translate(200,272) scale(1.3733333333333)"><rect width="6" height="6"/></g>
<g transform="translate(208,272) scale(1.3733333333333)"><rect width="6" height="6"/></g>
<g transform="translate(216,272) scale(1.3733333333333)"><rect width="6" height="6"/></g>
<g transform="translate(232,272) scale(1.3733333333333)"><rect width="6" height="6"/></g>
<g transform="translate(240,272) scale(1.3733333333333)"><rect width="6" height="6"/></g>
<g transform="translate(248,272) scale(1.3733333333333)"><rect width="6" height="6"/></g>
<g transform="translate(272,272) scale(1.3733333333333)"><rect width="6" height="6"/></g>
<g transform="translate(280,272) scale(1.3733333333333)"><rect width="6" height="6"/></g>
<g transform="translate(288,272) scale(1.3733333333333)"><rect width="6" height="6"/></g>
<g transform="translate(296,272) scale(1.3733333333333)"><rect width="6" height="6"/></g>
<g transform="translate(304,272) scale(1.3733333333333)"><rect width="6" height="6"/></g>
<g transform="translate(320,272) scale(1.3733333333333)"><rect width="6" height="6"/></g>
<g transform="translate(336,272) scale(1.3733333333333)"><rect width="6" height="6"/></g>
<g transform="translate(80,280) scale(1.3733333333333)"><rect width="6" height="6"/></g>
<g transform="translate(88,280) scale(1.3733333333333)"><rect width="6" height="6"/></g>
<g transform="translate(104,280) scale(1.3733333333333)"><rect width="6" height="6"/></g>
<g transform="translate(112,280) scale(1.3733333333333)"><rect width="6" height="6"/></g>
<g transform="translate(120,280) scale(1.3733333333333)"><rect width="6" height="6"/></g>
<g transform="translate(144,280) scale(1.3733333333333)"><rect width="6" height="6"/></g>
<g transform="translate(152,280) scale(1.3733333333333)"><rect width="6" height="6"/></g>
<g transform="translate(176,280) scale(1.3733333333333)"><rect width="6" height="6"/></g>
<g transform="translate(184,280) scale(1.3733333333333)"><rect width="6" height="6"/></g>
<g transform="translate(200,280) scale(1.3733333333333)"><rect width="6" height="6"/></g>
<g transform="translate(216,280) scale(1.3733333333333)"><rect width="6" height="6"/></g>
<g transform="translate(224,280) scale(1.3733333333333)"><rect width="6" height="6"/></g>
<g transform="translate(240,280) scale(1.3733333333333)"><rect width="6" height="6"/></g>
<g transform="translate(256,280) scale(1.3733333333333)"><rect width="6" height="6"/></g>
<g transform="translate(272,280) scale(1.3733333333333)"><rect width="6" height="6"/></g>
<g transform="translate(304,280) scale(1.3733333333333)"><rect width="6" height="6"/></g>
<g transform="translate(328,280) scale(1.3733333333333)"><rect width="6" height="6"/></g>
<g transform="translate(336,280) scale(1.3733333333333)"><rect width="6" height="6"/></g>
<g transform="translate(120,288) scale(1.3733333333333)"><rect width="6" height="6"/></g>
<g transform="translate(136,288) scale(1.3733333333333)"><rect width="6" height="6"/></g>
<g transform="translate(152,288) scale(1.3733333333333)"><rect width="6" height="6"/></g>
<g transform="translate(160,288) scale(1.3733333333333)"><rect width="6" height="6"/></g>
<g transform="translate(176,288) scale(1.3733333333333)"><rect width="6" height="6"/></g>
<g transform="translate(184,288) scale(1.3733333333333)"><rect width="6" height="6"/></g>
<g transform="translate(200,288) scale(1.3733333333333)"><rect width="6" height="6"/></g>
<g transform="translate(232,288) scale(1.3733333333333)"><rect width="6" height="6"/></g>
<g transform="translate(240,288) scale(1.3733333333333)"><rect width="6" height="6"/></g>
<g transform="translate(248,288) scale(1.3733333333333)"><rect width="6" height="6"/></g>
<g transform="translate(264,288) scale(1.3733333333333)"><rect width="6" height="6"/></g>
<g transform="translate(272,288) scale(1.3733333333333)"><rect width="6" height="6"/></g>
<g transform="translate(288,288) scale(1.3733333333333)"><rect width="6" height="6"/></g>
<g transform="translate(304,288) scale(1.3733333333333)"><rect width="6" height="6"/></g>
<g transform="translate(320,288) scale(1.3733333333333)"><rect width="6" height="6"/></g>
<g transform="translate(104,296) scale(1.3733333333333)"><rect width="6" height="6"/></g>
<g transform="translate(112,296) scale(1.3733333333333)"><rect width="6" height="6"/></g>
<g transform="translate(168,296) scale(1.3733333333333)"><rect width="6" height="6"/></g>
<g transform="translate(184,296) scale(1.3733333333333)"><rect width="6" height="6"/></g>
<g transform="translate(192,296) scale(1.3733333333333)"><rect width="6" height="6"/></g>
<g transform="translate(208,296) scale(1.3733333333333)"><rect width="6" height="6"/></g>
<g transform="translate(216,296) scale(1.3733333333333)"><rect width="6" height="6"/></g>
<g transform="translate(224,296) scale(1.3733333333333)"><rect width="6" height="6"/></g>
<g transform="translate(232,296) scale(1.3733333333333)"><rect width="6" height="6"/></g>
<g transform="translate(264,296) scale(1.3733333333333)"><rect width="6" height="6"/></g>
<g transform="translate(272,296) scale(1.3733333333333)"><rect width="6" height="6"/></g>
<g transform="translate(304,296) scale(1.3733333333333)"><rect width="6" height="6"/></g>
<g transform="translate(312,296) scale(1.3733333333333)"><rect width="6" height="6"/></g>
<g transform="translate(328,296) scale(1.3733333333333)"><rect width="6" height="6"/></g>
<g transform="translate(336,296) scale(1.3733333333333)"><rect width="6" height="6"/></g>
<g transform="translate(80,304) scale(1.3733333333333)"><rect width="6" height="6"/></g>
<g transform="translate(104,304) scale(1.3733333333333)"><rect width="6" height="6"/></g>
<g transform="translate(112,304) scale(1.3733333333333)"><rect width="6" height="6"/></g>
<g transform="translate(120,304) scale(1.3733333333333)"><rect width="6" height="6"/></g>
<g transform="translate(144,304) scale(1.3733333333333)"><rect width="6" height="6"/></g>
<g transform="translate(176,304) scale(1.3733333333333)"><rect width="6" height="6"/></g>
<g transform="translate(192,304) scale(1.3733333333333)"><rect width="6" height="6"/></g>
<g transform="translate(200,304) scale(1.3733333333333)"><rect width="6" height="6"/></g>
<g transform="translate(208,304) scale(1.3733333333333)"><rect width="6" height="6"/></g>
<g transform="translate(224,304) scale(1.3733333333333)"><rect width="6" height="6"/></g>
<g transform="translate(248,304) scale(1.3733333333333)"><rect width="6" height="6"/></g>
<g transform="translate(272,304) scale(1.3733333333333)"><rect width="6" height="6"/></g>
<g transform="translate(280,304) scale(1.3733333333333)"><rect width="6" height="6"/></g>
<g transform="translate(288,304) scale(1.3733333333333)"><rect width="6" height="6"/></g>
<g transform="translate(296,304) scale(1.3733333333333)"><rect width="6" height="6"/></g>
<g transform="translate(304,304) scale(1.3733333333333)"><rect width="6" height="6"/></g>
<g transform="translate(320,304) scale(1.3733333333333)"><rect width="6" height="6"/></g>
<g transform="translate(336,304) scale(1.3733333333333)"><rect width="6" height="6"/></g>
<g transform="translate(80,312) scale(1.3733333333333)"><rect width="6" height="6"/></g>
<g transform="translate(120,312) scale(1.3733333333333)"><rect width="6" height="6"/></g>
<g transform="translate(136,312) scale(1.3733333333333)"><rect width="6" height="6"/></g>
<g transform="translate(152,312) scale(1.3733333333333)"><rect width="6" height="6"/></g>
<g transform="translate(160,312) scale(1.3733333333333)"><rect width="6" height="6"/></g>
<g transform="translate(176,312) scale(1.3733333333333)"><rect width="6" height="6"/></g>
<g transform="translate(184,312) scale(1.3733333333333)"><rect width="6" height="6"/></g>
<g transform="translate(200,312) scale(1.3733333333333)"><rect width="6" height="6"/></g>
<g transform="translate(224,312) scale(1.3733333333333)"><rect width="6" height="6"/></g>
<g transform="translate(240,312) scale(1.3733333333333)"><rect width="6" height="6"/></g>
<g transform="translate(248,312) scale(1.3733333333333)"><rect width="6" height="6"/></g>
<g transform="translate(264,312) scale(1.3733333333333)"><rect width="6" height="6"/></g>
<g transform="translate(280,312) scale(1.3733333333333)"><rect width="6" height="6"/></g>
<g transform="translate(296,312) scale(1.3733333333333)"><rect width="6" height="6"/></g>
<g transform="translate(312,312) scale(1.3733333333333)"><rect width="6" height="6"/></g>
<g transform="translate(320,312) scale(1.3733333333333)"><rect width="6" height="6"/></g>
<g transform="translate(336,312) scale(1.3733333333333)"><rect width="6" height="6"/></g>
<g transform="translate(80,320) scale(1.3733333333333)"><rect width="6" height="6"/></g>
<g transform="translate(128,320) scale(1.3733333333333)"><rect width="6" height="6"/></g>
<g transform="translate(136,320) scale(1.3733333333333)"><rect width="6" height="6"/></g>
<g transform="translate(144,320) scale(1.3733333333333)"><rect width="6" height="6"/></g>
<g transform="translate(152,320) scale(1.3733333333333)"><rect width="6" height="6"/></g>
<g transform="translate(168,320) scale(1.3733333333333)"><rect width="6" height="6"/></g>
<g transform="translate(176,320) scale(1.3733333333333)"><rect width="6" height="6"/></g>
<g transform="translate(184,320) scale(1.3733333333333)"><rect width="6" height="6"/></g>
<g transform="translate(192,320) scale(1.3733333333333)"><rect width="6" height="6"/></g>
<g transform="translate(208,320) scale(1.3733333333333)"><rect width="6" height="6"/></g>
<g transform="translate(232,320) scale(1.3733333333333)"><rect width="6" height="6"/></g>
<g transform="translate(240,320) scale(1.3733333333333)"><rect width="6" height="6"/></g>
<g transform="translate(256,320) scale(1.3733333333333)"><rect width="6" height="6"/></g>
<g transform="translate(272,320) scale(1.3733333333333)"><rect width="6" height="6"/></g>
<g transform="translate(280,320) scale(1.3733333333333)"><rect width="6" height="6"/></g>
<g transform="translate(288,320) scale(1.3733333333333)"><rect width="6" height="6"/></g>
<g transform="translate(296,320) scale(1.3733333333333)"><rect width="6" height="6"/></g>
<g transform="translate(304,320) scale(1.3733333333333)"><rect width="6" height="6"/></g>
<g transform="translate(312,320) scale(1.3733333333333)"><rect width="6" height="6"/></g>
<g transform="translate(320,320) scale(1.3733333333333)"><rect width="6" height="6"/></g>
<g transform="translate(328,320) scale(1.3733333333333)"><rect width="6" height="6"/></g>
<g transform="translate(88,328) scale(1.3733333333333)"><rect width="6" height="6"/></g>
<g transform="translate(104,328) scale(1.3733333333333)"><rect width="6" height="6"/></g>
<g transform="translate(112,328) scale(1.3733333333333)"><rect width="6" height="6"/></g>
<g transform="translate(120,328) scale(1.3733333333333)"><rect width="6" height="6"/></g>
<g transform="translate(136,328) scale(1.3733333333333)"><rect width="6" height="6"/></g>
<g transform="translate(144,328) scale(1.3733333333333)"><rect width="6" height="6"/></g>
<g transform="translate(168,328) scale(1.3733333333333)"><rect width="6" height="6"/></g>
<g transform="translate(176,328) scale(1.3733333333333)"><rect width="6" height="6"/></g>
<g transform="translate(184,328) scale(1.3733333333333)"><rect width="6" height="6"/></g>
<g transform="translate(200,328) scale(1.3733333333333)"><rect width="6" height="6"/></g>
<g transform="translate(216,328) scale(1.3733333333333)"><rect width="6" height="6"/></g>
<g transform="translate(232,328) scale(1.3733333333333)"><rect width="6" height="6"/></g>
<g transform="translate(264,328) scale(1.3733333333333)"><rect width="6" height="6"/></g>
<g transform="translate(272,328) scale(1.3733333333333)"><rect width="6" height="6"/></g>
<g transform="translate(280,328) scale(1.3733333333333)"><rect width="6" height="6"/></g>
<g transform="translate(304,328) scale(1.3733333333333)"><rect width="6" height="6"/></g>
<g transform="translate(312,328) scale(1.3733333333333)"><rect width="6" height="6"/></g>
<g transform="translate(328,328) scale(1.3733333333333)"><rect width="6" height="6"/></g>
<g transform="translate(96,336) scale(1.3733333333333)"><rect width="6" height="6"/></g>
<g transform="translate(112,336) scale(1.3733333333333)"><rect width="6" height="6"/></g>
<g transform="translate(128,336) scale(1.3733333333333)"><rect width="6" height="6"/></g>
<g transform="translate(136,336) scale(1.3733333333333)"><rect width="6" height="6"/></g>
<g transform="translate(152,336) scale(1.3733333333333)"><rect width="6" height="6"/></g>
<g transform="translate(160,336) scale(1.3733333333333)"><rect width="6" height="6"/></g>
<g transform="translate(168,336) scale(1.3733333333333)"><rect width="6" height="6"/></g>
<g transform="translate(184,336) scale(1.3733333333333)"><rect width="6" height="6"/></g>
<g transform="translate(216,336) scale(1.3733333333333)"><rect width="6" height="6"/></g>
<g transform="translate(248,336) scale(1.3733333333333)"><rect width="6" height="6"/></g>
<g transform="translate(264,336) scale(1.3733333333333)"><rect width="6" height="6"/></g>
<g transform="translate(280,336) scale(1.3733333333333)"><rect width="6" height="6"/></g>
<g transform="translate(288,336) scale(1.3733333333333)"><rect width="6" height="6"/></g>
<g transform="translate(296,336) scale(1.3733333333333)"><rect width="6" height="6"/></g>
<g transform="translate(304,336) scale(1.3733333333333)"><rect width="6" height="6"/></g>
<g transform="translate(320,336) scale(1.3733333333333)"><rect width="6" height="6"/></g>
<g transform="translate(16,16)"><g transform="scale(4)"><path d="M0,0v14h14V0H0z M12,12H2V2h10V12z"/></g></g>
<g transform="translate(288,16)"><g transform="scale(4)"><path d="M0,0v14h14V0H0z M12,12H2V2h10V12z"/></g></g>
<g transform="translate(16,288)"><g transform="scale(4)"><path d="M0,0v14h14V0H0z M12,12H2V2h10V12z"/></g></g>
<g transform="translate(32,32)"><g transform="scale(4)"><rect width="6" height="6"/></g></g>
<g transform="translate(304,32)"><g transform="scale(4)"><rect width="6" height="6"/></g></g>
<g transform="translate(32,304)"><g transform="scale(4)"><rect width="6" height="6"/></g></g>
</g></svg>
