<svg width="361" height="360" viewBox="0 0 361 360" fill="none" xmlns="http://www.w3.org/2000/svg">
<path d="M88.74 16H80.5V24.24H88.74V16Z" fill="#464646"/>
<path d="M104.74 16H96.5V24.24H104.74V16Z" fill="#464646"/>
<path d="M112.74 16H104.5V24.24H112.74V16Z" fill="#464646"/>
<path d="M144.74 16H136.5V24.24H144.74V16Z" fill="#464646"/>
<path d="M160.74 16H152.5V24.24H160.74V16Z" fill="#464646"/>
<path d="M184.74 16H176.5V24.24H184.74V16Z" fill="#464646"/>
<path d="M208.74 16H200.5V24.24H208.74V16Z" fill="#464646"/>
<path d="M248.74 16H240.5V24.24H248.74V16Z" fill="#464646"/>
<path d="M272.74 16H264.5V24.24H272.74V16Z" fill="#464646"/>
<path d="M88.74 24H80.5V32.24H88.74V24Z" fill="#464646"/>
<path d="M136.74 24H128.5V32.24H136.74V24Z" fill="#464646"/>
<path d="M152.74 24H144.5V32.24H152.74V24Z" fill="#464646"/>
<path d="M176.74 24H168.5V32.24H176.74V24Z" fill="#464646"/>
<path d="M200.74 24H192.5V32.24H200.74V24Z" fill="#464646"/>
<path d="M208.74 24H200.5V32.24H208.74V24Z" fill="#464646"/>
<path d="M216.74 24H208.5V32.24H216.74V24Z" fill="#464646"/>
<path d="M240.74 24H232.5V32.24H240.74V24Z" fill="#464646"/>
<path d="M248.74 24H240.5V32.24H248.74V24Z" fill="#464646"/>
<path d="M264.74 24H256.5V32.24H264.74V24Z" fill="#464646"/>
<path d="M88.74 32H80.5V40.24H88.74V32Z" fill="#464646"/>
<path d="M104.74 32H96.5V40.24H104.74V32Z" fill="#464646"/>
<path d="M128.74 32H120.5V40.24H128.74V32Z" fill="#464646"/>
<path d="M144.74 32H136.5V40.24H144.74V32Z" fill="#464646"/>
<path d="M160.74 32H152.5V40.24H160.74V32Z" fill="#464646"/>
<path d="M176.74 32H168.5V40.24H176.74V32Z" fill="#464646"/>
<path d="M184.74 32H176.5V40.24H184.74V32Z" fill="#464646"/>
<path d="M200.74 32H192.5V40.24H200.74V32Z" fill="#464646"/>
<path d="M208.74 32H200.5V40.24H208.74V32Z" fill="#464646"/>
<path d="M232.74 32H224.5V40.24H232.74V32Z" fill="#464646"/>
<path d="M240.74 32H232.5V40.24H240.74V32Z" fill="#464646"/>
<path d="M248.74 32H240.5V40.24H248.74V32Z" fill="#464646"/>
<path d="M264.74 32H256.5V40.24H264.74V32Z" fill="#464646"/>
<path d="M272.74 32H264.5V40.24H272.74V32Z" fill="#464646"/>
<path d="M280.74 32H272.5V40.24H280.74V32Z" fill="#464646"/>
<path d="M96.74 40H88.5V48.24H96.74V40Z" fill="#464646"/>
<path d="M104.74 40H96.5V48.24H104.74V40Z" fill="#464646"/>
<path d="M136.74 40H128.5V48.24H136.74V40Z" fill="#464646"/>
<path d="M144.74 40H136.5V48.24H144.74V40Z" fill="#464646"/>
<path d="M160.74 40H152.5V48.24H160.74V40Z" fill="#464646"/>
<path d="M168.74 40H160.5V48.24H168.74V40Z" fill="#464646"/>
<path d="M176.74 40H168.5V48.24H176.74V40Z" fill="#464646"/>
<path d="M208.74 40H200.5V48.24H208.74V40Z" fill="#464646"/>
<path d="M240.74 40H232.5V48.24H240.74V40Z" fill="#464646"/>
<path d="M264.74 40H256.5V48.24H264.74V40Z" fill="#464646"/>
<path d="M272.74 40H264.5V48.24H272.74V40Z" fill="#464646"/>
<path d="M104.74 48H96.5V56.24H104.74V48Z" fill="#464646"/>
<path d="M112.74 48H104.5V56.24H112.74V48Z" fill="#464646"/>
<path d="M160.74 48H152.5V56.24H160.74V48Z" fill="#464646"/>
<path d="M168.74 48H160.5V56.24H168.74V48Z" fill="#464646"/>
<path d="M176.74 48H168.5V56.24H176.74V48Z" fill="#464646"/>
<path d="M184.74 48H176.5V56.24H184.74V48Z" fill="#464646"/>
<path d="M224.74 48H216.5V56.24H224.74V48Z" fill="#464646"/>
<path d="M232.74 48H224.5V56.24H232.74V48Z" fill="#464646"/>
<path d="M272.74 48H264.5V56.24H272.74V48Z" fill="#464646"/>
<path d="M280.74 48H272.5V56.24H280.74V48Z" fill="#464646"/>
<path d="M88.74 56H80.5V64.24H88.74V56Z" fill="#464646"/>
<path d="M104.74 56H96.5V64.24H104.74V56Z" fill="#464646"/>
<path d="M112.74 56H104.5V64.24H112.74V56Z" fill="#464646"/>
<path d="M120.74 56H112.5V64.24H120.74V56Z" fill="#464646"/>
<path d="M136.74 56H128.5V64.24H136.74V56Z" fill="#464646"/>
<path d="M144.74 56H136.5V64.24H144.74V56Z" fill="#464646"/>
<path d="M152.74 56H144.5V64.24H152.74V56Z" fill="#464646"/>
<path d="M160.74 56H152.5V64.24H160.74V56Z" fill="#464646"/>
<path d="M184.74 56H176.5V64.24H184.74V56Z" fill="#464646"/>
<path d="M192.74 56H184.5V64.24H192.74V56Z" fill="#464646"/>
<path d="M208.74 56H200.5V64.24H208.74V56Z" fill="#464646"/>
<path d="M224.74 56H216.5V64.24H224.74V56Z" fill="#464646"/>
<path d="M240.74 56H232.5V64.24H240.74V56Z" fill="#464646"/>
<path d="M248.74 56H240.5V64.24H248.74V56Z" fill="#464646"/>
<path d="M264.74 56H256.5V64.24H264.74V56Z" fill="#464646"/>
<path d="M280.74 56H272.5V64.24H280.74V56Z" fill="#464646"/>
<path d="M88.74 64H80.5V72.24H88.74V64Z" fill="#464646"/>
<path d="M104.74 64H96.5V72.24H104.74V64Z" fill="#464646"/>
<path d="M120.74 64H112.5V72.24H120.74V64Z" fill="#464646"/>
<path d="M136.74 64H128.5V72.24H136.74V64Z" fill="#464646"/>
<path d="M152.74 64H144.5V72.24H152.74V64Z" fill="#464646"/>
<path d="M168.74 64H160.5V72.24H168.74V64Z" fill="#464646"/>
<path d="M184.74 64H176.5V72.24H184.74V64Z" fill="#464646"/>
<path d="M200.74 64H192.5V72.24H200.74V64Z" fill="#464646"/>
<path d="M216.74 64H208.5V72.24H216.74V64Z" fill="#464646"/>
<path d="M232.74 64H224.5V72.24H232.74V64Z" fill="#464646"/>
<path d="M248.74 64H240.5V72.24H248.74V64Z" fill="#464646"/>
<path d="M264.74 64H256.5V72.24H264.74V64Z" fill="#464646"/>
<path d="M280.74 64H272.5V72.24H280.74V64Z" fill="#464646"/>
<path d="M88.74 72H80.5V80.24H88.74V72Z" fill="#464646"/>
<path d="M104.74 72H96.5V80.24H104.74V72Z" fill="#464646"/>
<path d="M112.74 72H104.5V80.24H112.74V72Z" fill="#464646"/>
<path d="M120.74 72H112.5V80.24H120.74V72Z" fill="#464646"/>
<path d="M176.74 72H168.5V80.24H176.74V72Z" fill="#464646"/>
<path d="M184.74 72H176.5V80.24H184.74V72Z" fill="#464646"/>
<path d="M192.74 72H184.5V80.24H192.74V72Z" fill="#464646"/>
<path d="M200.74 72H192.5V80.24H200.74V72Z" fill="#464646"/>
<path d="M224.74 72H216.5V80.24H224.74V72Z" fill="#464646"/>
<path d="M240.74 72H232.5V80.24H240.74V72Z" fill="#464646"/>
<path d="M248.74 72H240.5V80.24H248.74V72Z" fill="#464646"/>
<path d="M264.74 72H256.5V80.24H264.74V72Z" fill="#464646"/>
<path d="M272.74 72H264.5V80.24H272.74V72Z" fill="#464646"/>
<path d="M280.74 72H272.5V80.24H280.74V72Z" fill="#464646"/>
<path d="M40.74 80H32.5V88.24H40.74V80Z" fill="#464646"/>
<path d="M48.74 80H40.5V88.24H48.74V80Z" fill="#464646"/>
<path d="M56.74 80H48.5V88.24H56.74V80Z" fill="#464646"/>
<path d="M72.74 80H64.5V88.24H72.74V80Z" fill="#464646"/>
<path d="M88.74 80H80.5V88.24H88.74V80Z" fill="#464646"/>
<path d="M96.74 80H88.5V88.24H96.74V80Z" fill="#464646"/>
<path d="M120.74 80H112.5V88.24H120.74V80Z" fill="#464646"/>
<path d="M136.74 80H128.5V88.24H136.74V80Z" fill="#464646"/>
<path d="M152.74 80H144.5V88.24H152.74V80Z" fill="#464646"/>
<path d="M160.74 80H152.5V88.24H160.74V80Z" fill="#464646"/>
<path d="M168.74 80H160.5V88.24H168.74V80Z" fill="#464646"/>
<path d="M184.74 80H176.5V88.24H184.74V80Z" fill="#464646"/>
<path d="M192.74 80H184.5V88.24H192.74V80Z" fill="#464646"/>
<path d="M208.74 80H200.5V88.24H208.74V80Z" fill="#464646"/>
<path d="M224.74 80H216.5V88.24H224.74V80Z" fill="#464646"/>
<path d="M240.74 80H232.5V88.24H240.74V80Z" fill="#464646"/>
<path d="M256.74 80H248.5V88.24H256.74V80Z" fill="#464646"/>
<path d="M272.74 80H264.5V88.24H272.74V80Z" fill="#464646"/>
<path d="M280.74 80H272.5V88.24H280.74V80Z" fill="#464646"/>
<path d="M288.74 80H280.5V88.24H288.74V80Z" fill="#464646"/>
<path d="M296.74 80H288.5V88.24H296.74V80Z" fill="#464646"/>
<path d="M304.74 80H296.5V88.24H304.74V80Z" fill="#464646"/>
<path d="M328.74 80H320.5V88.24H328.74V80Z" fill="#464646"/>
<path d="M336.74 80H328.5V88.24H336.74V80Z" fill="#464646"/>
<path d="M344.74 80H336.5V88.24H344.74V80Z" fill="#464646"/>
<path d="M24.74 88H16.5V96.24H24.74V88Z" fill="#464646"/>
<path d="M32.74 88H24.5V96.24H32.74V88Z" fill="#464646"/>
<path d="M40.74 88H32.5V96.24H40.74V88Z" fill="#464646"/>
<path d="M48.74 88H40.5V96.24H48.74V88Z" fill="#464646"/>
<path d="M56.74 88H48.5V96.24H56.74V88Z" fill="#464646"/>
<path d="M88.74 88H80.5V96.24H88.74V88Z" fill="#464646"/>
<path d="M96.74 88H88.5V96.24H96.74V88Z" fill="#464646"/>
<path d="M128.74 88H120.5V96.24H128.74V88Z" fill="#464646"/>
<path d="M152.74 88H144.5V96.24H152.74V88Z" fill="#464646"/>
<path d="M160.74 88H152.5V96.24H160.74V88Z" fill="#464646"/>
<path d="M176.74 88H168.5V96.24H176.74V88Z" fill="#464646"/>
<path d="M184.74 88H176.5V96.24H184.74V88Z" fill="#464646"/>
<path d="M200.74 88H192.5V96.24H200.74V88Z" fill="#464646"/>
<path d="M208.74 88H200.5V96.24H208.74V88Z" fill="#464646"/>
<path d="M216.74 88H208.5V96.24H216.74V88Z" fill="#464646"/>
<path d="M224.74 88H216.5V96.24H224.74V88Z" fill="#464646"/>
<path d="M272.74 88H264.5V96.24H272.74V88Z" fill="#464646"/>
<path d="M280.74 88H272.5V96.24H280.74V88Z" fill="#464646"/>
<path d="M296.74 88H288.5V96.24H296.74V88Z" fill="#464646"/>
<path d="M304.74 88H296.5V96.24H304.74V88Z" fill="#464646"/>
<path d="M312.74 88H304.5V96.24H312.74V88Z" fill="#464646"/>
<path d="M328.74 88H320.5V96.24H328.74V88Z" fill="#464646"/>
<path d="M336.74 88H328.5V96.24H336.74V88Z" fill="#464646"/>
<path d="M344.74 88H336.5V96.24H344.74V88Z" fill="#464646"/>
<path d="M24.74 96H16.5V104.24H24.74V96Z" fill="#464646"/>
<path d="M32.74 96H24.5V104.24H32.74V96Z" fill="#464646"/>
<path d="M40.74 96H32.5V104.24H40.74V96Z" fill="#464646"/>
<path d="M48.74 96H40.5V104.24H48.74V96Z" fill="#464646"/>
<path d="M64.74 96H56.5V104.24H64.74V96Z" fill="#464646"/>
<path d="M72.74 96H64.5V104.24H72.74V96Z" fill="#464646"/>
<path d="M88.74 96H80.5V104.24H88.74V96Z" fill="#464646"/>
<path d="M96.74 96H88.5V104.24H96.74V96Z" fill="#464646"/>
<path d="M104.74 96H96.5V104.24H104.74V96Z" fill="#464646"/>
<path d="M112.74 96H104.5V104.24H112.74V96Z" fill="#464646"/>
<path d="M144.74 96H136.5V104.24H144.74V96Z" fill="#464646"/>
<path d="M160.74 96H152.5V104.24H160.74V96Z" fill="#464646"/>
<path d="M168.74 96H160.5V104.24H168.74V96Z" fill="#464646"/>
<path d="M176.74 96H168.5V104.24H176.74V96Z" fill="#464646"/>
<path d="M216.74 96H208.5V104.24H216.74V96Z" fill="#464646"/>
<path d="M232.74 96H224.5V104.24H232.74V96Z" fill="#464646"/>
<path d="M240.74 96H232.5V104.24H240.74V96Z" fill="#464646"/>
<path d="M248.74 96H240.5V104.24H248.74V96Z" fill="#464646"/>
<path d="M256.74 96H248.5V104.24H256.74V96Z" fill="#464646"/>
<path d="M280.74 96H272.5V104.24H280.74V96Z" fill="#464646"/>
<path d="M296.74 96H288.5V104.24H296.74V96Z" fill="#464646"/>
<path d="M304.74 96H296.5V104.24H304.74V96Z" fill="#464646"/>
<path d="M24.74 104H16.5V112.24H24.74V104Z" fill="#464646"/>
<path d="M32.74 104H24.5V112.24H32.74V104Z" fill="#464646"/>
<path d="M40.74 104H32.5V112.24H40.74V104Z" fill="#464646"/>
<path d="M56.74 104H48.5V112.24H56.74V104Z" fill="#464646"/>
<path d="M64.74 104H56.5V112.24H64.74V104Z" fill="#464646"/>
<path d="M80.74 104H72.5V112.24H80.74V104Z" fill="#464646"/>
<path d="M88.74 104H80.5V112.24H88.74V104Z" fill="#464646"/>
<path d="M96.74 104H88.5V112.24H96.74V104Z" fill="#464646"/>
<path d="M128.74 104H120.5V112.24H128.74V104Z" fill="#464646"/>
<path d="M144.74 104H136.5V112.24H144.74V104Z" fill="#464646"/>
<path d="M152.74 104H144.5V112.24H152.74V104Z" fill="#464646"/>
<path d="M176.74 104H168.5V112.24H176.74V104Z" fill="#464646"/>
<path d="M184.74 104H176.5V112.24H184.74V104Z" fill="#464646"/>
<path d="M192.74 104H184.5V112.24H192.74V104Z" fill="#464646"/>
<path d="M200.74 104H192.5V112.24H200.74V104Z" fill="#464646"/>
<path d="M208.74 104H200.5V112.24H208.74V104Z" fill="#464646"/>
<path d="M216.74 104H208.5V112.24H216.74V104Z" fill="#464646"/>
<path d="M232.74 104H224.5V112.24H232.74V104Z" fill="#464646"/>
<path d="M240.74 104H232.5V112.24H240.74V104Z" fill="#464646"/>
<path d="M248.74 104H240.5V112.24H248.74V104Z" fill="#464646"/>
<path d="M272.74 104H264.5V112.24H272.74V104Z" fill="#464646"/>
<path d="M280.74 104H272.5V112.24H280.74V104Z" fill="#464646"/>
<path d="M296.74 104H288.5V112.24H296.74V104Z" fill="#464646"/>
<path d="M312.74 104H304.5V112.24H312.74V104Z" fill="#464646"/>
<path d="M320.74 104H312.5V112.24H320.74V104Z" fill="#464646"/>
<path d="M336.74 104H328.5V112.24H336.74V104Z" fill="#464646"/>
<path d="M24.74 112H16.5V120.24H24.74V112Z" fill="#464646"/>
<path d="M40.74 112H32.5V120.24H40.74V112Z" fill="#464646"/>
<path d="M48.74 112H40.5V120.24H48.74V112Z" fill="#464646"/>
<path d="M72.74 112H64.5V120.24H72.74V112Z" fill="#464646"/>
<path d="M104.74 112H96.5V120.24H104.74V112Z" fill="#464646"/>
<path d="M112.74 112H104.5V120.24H112.74V112Z" fill="#464646"/>
<path d="M120.74 112H112.5V120.24H120.74V112Z" fill="#464646"/>
<path d="M144.74 112H136.5V120.24H144.74V112Z" fill="#464646"/>
<path d="M160.74 112H152.5V120.24H160.74V112Z" fill="#464646"/>
<path d="M176.74 112H168.5V120.24H176.74V112Z" fill="#464646"/>
<path d="M184.74 112H176.5V120.24H184.74V112Z" fill="#464646"/>
<path d="M192.74 112H184.5V120.24H192.74V112Z" fill="#464646"/>
<path d="M216.74 112H208.5V120.24H216.74V112Z" fill="#464646"/>
<path d="M224.74 112H216.5V120.24H224.74V112Z" fill="#464646"/>
<path d="M232.74 112H224.5V120.24H232.74V112Z" fill="#464646"/>
<path d="M256.74 112H248.5V120.24H256.74V112Z" fill="#464646"/>
<path d="M272.74 112H264.5V120.24H272.74V112Z" fill="#464646"/>
<path d="M280.74 112H272.5V120.24H280.74V112Z" fill="#464646"/>
<path d="M320.74 112H312.5V120.24H320.74V112Z" fill="#464646"/>
<path d="M328.74 112H320.5V120.24H328.74V112Z" fill="#464646"/>
<path d="M24.74 120H16.5V128.24H24.74V120Z" fill="#464646"/>
<path d="M40.74 120H32.5V128.24H40.74V120Z" fill="#464646"/>
<path d="M56.74 120H48.5V128.24H56.74V120Z" fill="#464646"/>
<path d="M64.74 120H56.5V128.24H64.74V120Z" fill="#464646"/>
<path d="M96.74 120H88.5V128.24H96.74V120Z" fill="#464646"/>
<path d="M120.74 120H112.5V128.24H120.74V120Z" fill="#464646"/>
<path d="M136.74 120H128.5V128.24H136.74V120Z" fill="#464646"/>
<path d="M152.74 120H144.5V128.24H152.74V120Z" fill="#464646"/>
<path d="M160.74 120H152.5V128.24H160.74V120Z" fill="#464646"/>
<path d="M168.74 120H160.5V128.24H168.74V120Z" fill="#464646"/>
<path d="M176.74 120H168.5V128.24H176.74V120Z" fill="#464646"/>
<path d="M208.74 120H200.5V128.24H208.74V120Z" fill="#464646"/>
<path d="M232.74 120H224.5V128.24H232.74V120Z" fill="#464646"/>
<path d="M240.74 120H232.5V128.24H240.74V120Z" fill="#464646"/>
<path d="M248.74 120H240.5V128.24H248.74V120Z" fill="#464646"/>
<path d="M256.74 120H248.5V128.24H256.74V120Z" fill="#464646"/>
<path d="M288.74 120H280.5V128.24H288.74V120Z" fill="#464646"/>
<path d="M296.74 120H288.5V128.24H296.74V120Z" fill="#464646"/>
<path d="M312.74 120H304.5V128.24H312.74V120Z" fill="#464646"/>
<path d="M328.74 120H320.5V128.24H328.74V120Z" fill="#464646"/>
<path d="M336.74 120H328.5V128.24H336.74V120Z" fill="#464646"/>
<path d="M344.74 120H336.5V128.24H344.74V120Z" fill="#464646"/>
<path d="M40.74 128H32.5V136.24H40.74V128Z" fill="#464646"/>
<path d="M72.74 128H64.5V136.24H72.74V128Z" fill="#464646"/>
<path d="M104.74 128H96.5V136.24H104.74V128Z" fill="#464646"/>
<path d="M168.74 128H160.5V136.24H168.74V128Z" fill="#464646"/>
<path d="M176.74 128H168.5V136.24H176.74V128Z" fill="#464646"/>
<path d="M192.74 128H184.5V136.24H192.74V128Z" fill="#464646"/>
<path d="M256.74 128H248.5V136.24H256.74V128Z" fill="#464646"/>
<path d="M280.74 128H272.5V136.24H280.74V128Z" fill="#464646"/>
<path d="M288.74 128H280.5V136.24H288.74V128Z" fill="#464646"/>
<path d="M304.74 128H296.5V136.24H304.74V128Z" fill="#464646"/>
<path d="M312.74 128H304.5V136.24H312.74V128Z" fill="#464646"/>
<path d="M320.74 128H312.5V136.24H320.74V128Z" fill="#464646"/>
<path d="M24.74 136H16.5V144.24H24.74V136Z" fill="#464646"/>
<path d="M48.74 136H40.5V144.24H48.74V136Z" fill="#464646"/>
<path d="M64.74 136H56.5V144.24H64.74V136Z" fill="#464646"/>
<path d="M80.74 136H72.5V144.24H80.74V136Z" fill="#464646"/>
<path d="M88.74 136H80.5V144.24H88.74V136Z" fill="#464646"/>
<path d="M96.74 136H88.5V144.24H96.74V136Z" fill="#464646"/>
<path d="M112.74 136H104.5V144.24H112.74V136Z" fill="#464646"/>
<path d="M120.74 136H112.5V144.24H120.74V136Z" fill="#464646"/>
<path d="M136.74 136H128.5V144.24H136.74V136Z" fill="#464646"/>
<path d="M144.74 136H136.5V144.24H144.74V136Z" fill="#464646"/>
<path d="M152.74 136H144.5V144.24H152.74V136Z" fill="#464646"/>
<path d="M160.74 136H152.5V144.24H160.74V136Z" fill="#464646"/>
<path d="M168.74 136H160.5V144.24H168.74V136Z" fill="#464646"/>
<path d="M176.74 136H168.5V144.24H176.74V136Z" fill="#464646"/>
<path d="M200.74 136H192.5V144.24H200.74V136Z" fill="#464646"/>
<path d="M216.74 136H208.5V144.24H216.74V136Z" fill="#464646"/>
<path d="M224.74 136H216.5V144.24H224.74V136Z" fill="#464646"/>
<path d="M232.74 136H224.5V144.24H232.74V136Z" fill="#464646"/>
<path d="M248.74 136H240.5V144.24H248.74V136Z" fill="#464646"/>
<path d="M280.74 136H272.5V144.24H280.74V136Z" fill="#464646"/>
<path d="M296.74 136H288.5V144.24H296.74V136Z" fill="#464646"/>
<path d="M312.74 136H304.5V144.24H312.74V136Z" fill="#464646"/>
<path d="M320.74 136H312.5V144.24H320.74V136Z" fill="#464646"/>
<path d="M336.74 136H328.5V144.24H336.74V136Z" fill="#464646"/>
<path d="M24.74 144H16.5V152.24H24.74V144Z" fill="#464646"/>
<path d="M32.74 144H24.5V152.24H32.74V144Z" fill="#464646"/>
<path d="M40.74 144H32.5V152.24H40.74V144Z" fill="#464646"/>
<path d="M56.74 144H48.5V152.24H56.74V144Z" fill="#464646"/>
<path d="M72.74 144H64.5V152.24H72.74V144Z" fill="#464646"/>
<path d="M80.74 144H72.5V152.24H80.74V144Z" fill="#464646"/>
<path d="M88.74 144H80.5V152.24H88.74V144Z" fill="#464646"/>
<path d="M96.74 144H88.5V152.24H96.74V144Z" fill="#464646"/>
<path d="M104.74 144H96.5V152.24H104.74V144Z" fill="#464646"/>
<path d="M112.74 144H104.5V152.24H112.74V144Z" fill="#464646"/>
<path d="M128.74 144H120.5V152.24H128.74V144Z" fill="#464646"/>
<path d="M152.74 144H144.5V152.24H152.74V144Z" fill="#464646"/>
<path d="M168.74 144H160.5V152.24H168.74V144Z" fill="#464646"/>
<path d="M184.74 144H176.5V152.24H184.74V144Z" fill="#464646"/>
<path d="M232.74 144H224.5V152.24H232.74V144Z" fill="#464646"/>
<path d="M256.74 144H248.5V152.24H256.74V144Z" fill="#464646"/>
<path d="M272.74 144H264.5V152.24H272.74V144Z" fill="#464646"/>
<path d="M288.74 144H280.5V152.24H288.74V144Z" fill="#464646"/>
<path d="M304.74 144H296.5V152.24H304.74V144Z" fill="#464646"/>
<path d="M320.74 144H312.5V152.24H320.74V144Z" fill="#464646"/>
<path d="M328.74 144H320.5V152.24H328.74V144Z" fill="#464646"/>
<path d="M40.74 152H32.5V160.24H40.74V152Z" fill="#464646"/>
<path d="M56.74 152H48.5V160.24H56.74V152Z" fill="#464646"/>
<path d="M80.74 152H72.5V160.24H80.74V152Z" fill="#464646"/>
<path d="M104.74 152H96.5V160.24H104.74V152Z" fill="#464646"/>
<path d="M112.74 152H104.5V160.24H112.74V152Z" fill="#464646"/>
<path d="M128.74 152H120.5V160.24H128.74V152Z" fill="#464646"/>
<path d="M136.74 152H128.5V160.24H136.74V152Z" fill="#464646"/>
<path d="M144.74 152H136.5V160.24H144.74V152Z" fill="#464646"/>
<path d="M168.74 152H160.5V160.24H168.74V152Z" fill="#464646"/>
<path d="M192.74 152H184.5V160.24H192.74V152Z" fill="#464646"/>
<path d="M208.74 152H200.5V160.24H208.74V152Z" fill="#464646"/>
<path d="M216.74 152H208.5V160.24H216.74V152Z" fill="#464646"/>
<path d="M248.74 152H240.5V160.24H248.74V152Z" fill="#464646"/>
<path d="M264.74 152H256.5V160.24H264.74V152Z" fill="#464646"/>
<path d="M272.74 152H264.5V160.24H272.74V152Z" fill="#464646"/>
<path d="M280.74 152H272.5V160.24H280.74V152Z" fill="#464646"/>
<path d="M296.74 152H288.5V160.24H296.74V152Z" fill="#464646"/>
<path d="M304.74 152H296.5V160.24H304.74V152Z" fill="#464646"/>
<path d="M312.74 152H304.5V160.24H312.74V152Z" fill="#464646"/>
<path d="M328.74 152H320.5V160.24H328.74V152Z" fill="#464646"/>
<path d="M336.74 152H328.5V160.24H336.74V152Z" fill="#464646"/>
<path d="M344.74 152H336.5V160.24H344.74V152Z" fill="#464646"/>
<path d="M40.74 160H32.5V168.24H40.74V160Z" fill="#464646"/>
<path d="M56.74 160H48.5V168.24H56.74V160Z" fill="#464646"/>
<path d="M72.74 160H64.5V168.24H72.74V160Z" fill="#464646"/>
<path d="M96.74 160H88.5V168.24H96.74V160Z" fill="#464646"/>
<path d="M128.74 160H120.5V168.24H128.74V160Z" fill="#464646"/>
<path d="M144.74 160H136.5V168.24H144.74V160Z" fill="#464646"/>
<path d="M168.74 160H160.5V168.24H168.74V160Z" fill="#464646"/>
<path d="M200.74 160H192.5V168.24H200.74V160Z" fill="#464646"/>
<path d="M216.74 160H208.5V168.24H216.74V160Z" fill="#464646"/>
<path d="M240.74 160H232.5V168.24H240.74V160Z" fill="#464646"/>
<path d="M264.74 160H256.5V168.24H264.74V160Z" fill="#464646"/>
<path d="M280.74 160H272.5V168.24H280.74V160Z" fill="#464646"/>
<path d="M296.74 160H288.5V168.24H296.74V160Z" fill="#464646"/>
<path d="M312.74 160H304.5V168.24H312.74V160Z" fill="#464646"/>
<path d="M320.74 160H312.5V168.24H320.74V160Z" fill="#464646"/>
<path d="M24.74 168H16.5V176.24H24.74V168Z" fill="#464646"/>
<path d="M40.74 168H32.5V176.24H40.74V168Z" fill="#464646"/>
<path d="M48.74 168H40.5V176.24H48.74V168Z" fill="#464646"/>
<path d="M56.74 168H48.5V176.24H56.74V168Z" fill="#464646"/>
<path d="M80.74 168H72.5V176.24H80.74V168Z" fill="#464646"/>
<path d="M96.74 168H88.5V176.24H96.74V168Z" fill="#464646"/>
<path d="M128.74 168H120.5V176.24H128.74V168Z" fill="#464646"/>
<path d="M136.74 168H128.5V176.24H136.74V168Z" fill="#464646"/>
<path d="M176.74 168H168.5V176.24H176.74V168Z" fill="#464646"/>
<path d="M184.74 168H176.5V176.24H184.74V168Z" fill="#464646"/>
<path d="M192.74 168H184.5V176.24H192.74V168Z" fill="#464646"/>
<path d="M200.74 168H192.5V176.24H200.74V168Z" fill="#464646"/>
<path d="M208.74 168H200.5V176.24H208.74V168Z" fill="#464646"/>
<path d="M216.74 168H208.5V176.24H216.74V168Z" fill="#464646"/>
<path d="M264.74 168H256.5V176.24H264.74V168Z" fill="#464646"/>
<path d="M272.74 168H264.5V176.24H272.74V168Z" fill="#464646"/>
<path d="M280.74 168H272.5V176.24H280.74V168Z" fill="#464646"/>
<path d="M288.74 168H280.5V176.24H288.74V168Z" fill="#464646"/>
<path d="M296.74 168H288.5V176.24H296.74V168Z" fill="#464646"/>
<path d="M312.74 168H304.5V176.24H312.74V168Z" fill="#464646"/>
<path d="M320.74 168H312.5V176.24H320.74V168Z" fill="#464646"/>
<path d="M24.74 176H16.5V184.24H24.74V176Z" fill="#464646"/>
<path d="M56.74 176H48.5V184.24H56.74V176Z" fill="#464646"/>
<path d="M64.74 176H56.5V184.24H64.74V176Z" fill="#464646"/>
<path d="M72.74 176H64.5V184.24H72.74V176Z" fill="#464646"/>
<path d="M88.74 176H80.5V184.24H88.74V176Z" fill="#464646"/>
<path d="M104.74 176H96.5V184.24H104.74V176Z" fill="#464646"/>
<path d="M120.74 176H112.5V184.24H120.74V176Z" fill="#464646"/>
<path d="M128.74 176H120.5V184.24H128.74V176Z" fill="#464646"/>
<path d="M144.74 176H136.5V184.24H144.74V176Z" fill="#464646"/>
<path d="M152.74 176H144.5V184.24H152.74V176Z" fill="#464646"/>
<path d="M200.74 176H192.5V184.24H200.74V176Z" fill="#464646"/>
<path d="M216.74 176H208.5V184.24H216.74V176Z" fill="#464646"/>
<path d="M224.74 176H216.5V184.24H224.74V176Z" fill="#464646"/>
<path d="M232.74 176H224.5V184.24H232.74V176Z" fill="#464646"/>
<path d="M240.74 176H232.5V184.24H240.74V176Z" fill="#464646"/>
<path d="M256.74 176H248.5V184.24H256.74V176Z" fill="#464646"/>
<path d="M272.74 176H264.5V184.24H272.74V176Z" fill="#464646"/>
<path d="M304.74 176H296.5V184.24H304.74V176Z" fill="#464646"/>
<path d="M312.74 176H304.5V184.24H312.74V176Z" fill="#464646"/>
<path d="M320.74 176H312.5V184.24H320.74V176Z" fill="#464646"/>
<path d="M328.74 176H320.5V184.24H328.74V176Z" fill="#464646"/>
<path d="M344.74 176H336.5V184.24H344.74V176Z" fill="#464646"/>
<path d="M32.74 184H24.5V192.24H32.74V184Z" fill="#464646"/>
<path d="M64.74 184H56.5V192.24H64.74V184Z" fill="#464646"/>
<path d="M96.74 184H88.5V192.24H96.74V184Z" fill="#464646"/>
<path d="M120.74 184H112.5V192.24H120.74V184Z" fill="#464646"/>
<path d="M128.74 184H120.5V192.24H128.74V184Z" fill="#464646"/>
<path d="M144.74 184H136.5V192.24H144.74V184Z" fill="#464646"/>
<path d="M152.74 184H144.5V192.24H152.74V184Z" fill="#464646"/>
<path d="M168.74 184H160.5V192.24H168.74V184Z" fill="#464646"/>
<path d="M192.74 184H184.5V192.24H192.74V184Z" fill="#464646"/>
<path d="M208.74 184H200.5V192.24H208.74V184Z" fill="#464646"/>
<path d="M216.74 184H208.5V192.24H216.74V184Z" fill="#464646"/>
<path d="M232.74 184H224.5V192.24H232.74V184Z" fill="#464646"/>
<path d="M248.74 184H240.5V192.24H248.74V184Z" fill="#464646"/>
<path d="M272.74 184H264.5V192.24H272.74V184Z" fill="#464646"/>
<path d="M296.74 184H288.5V192.24H296.74V184Z" fill="#464646"/>
<path d="M304.74 184H296.5V192.24H304.74V184Z" fill="#464646"/>
<path d="M312.74 184H304.5V192.24H312.74V184Z" fill="#464646"/>
<path d="M328.74 184H320.5V192.24H328.74V184Z" fill="#464646"/>
<path d="M336.74 184H328.5V192.24H336.74V184Z" fill="#464646"/>
<path d="M344.74 184H336.5V192.24H344.74V184Z" fill="#464646"/>
<path d="M32.74 192H24.5V200.24H32.74V192Z" fill="#464646"/>
<path d="M48.74 192H40.5V200.24H48.74V192Z" fill="#464646"/>
<path d="M56.74 192H48.5V200.24H56.74V192Z" fill="#464646"/>
<path d="M64.74 192H56.5V200.24H64.74V192Z" fill="#464646"/>
<path d="M72.74 192H64.5V200.24H72.74V192Z" fill="#464646"/>
<path d="M88.74 192H80.5V200.24H88.74V192Z" fill="#464646"/>
<path d="M112.74 192H104.5V200.24H112.74V192Z" fill="#464646"/>
<path d="M120.74 192H112.5V200.24H120.74V192Z" fill="#464646"/>
<path d="M144.74 192H136.5V200.24H144.74V192Z" fill="#464646"/>
<path d="M152.74 192H144.5V200.24H152.74V192Z" fill="#464646"/>
<path d="M160.74 192H152.5V200.24H160.74V192Z" fill="#464646"/>
<path d="M168.74 192H160.5V200.24H168.74V192Z" fill="#464646"/>
<path d="M184.74 192H176.5V200.24H184.74V192Z" fill="#464646"/>
<path d="M200.74 192H192.5V200.24H200.74V192Z" fill="#464646"/>
<path d="M208.74 192H200.5V200.24H208.74V192Z" fill="#464646"/>
<path d="M216.74 192H208.5V200.24H216.74V192Z" fill="#464646"/>
<path d="M232.74 192H224.5V200.24H232.74V192Z" fill="#464646"/>
<path d="M240.74 192H232.5V200.24H240.74V192Z" fill="#464646"/>
<path d="M256.74 192H248.5V200.24H256.74V192Z" fill="#464646"/>
<path d="M264.74 192H256.5V200.24H264.74V192Z" fill="#464646"/>
<path d="M280.74 192H272.5V200.24H280.74V192Z" fill="#464646"/>
<path d="M320.74 192H312.5V200.24H320.74V192Z" fill="#464646"/>
<path d="M24.74 200H16.5V208.24H24.74V200Z" fill="#464646"/>
<path d="M32.74 200H24.5V208.24H32.74V200Z" fill="#464646"/>
<path d="M56.74 200H48.5V208.24H56.74V200Z" fill="#464646"/>
<path d="M64.74 200H56.5V208.24H64.74V200Z" fill="#464646"/>
<path d="M88.74 200H80.5V208.24H88.74V200Z" fill="#464646"/>
<path d="M96.74 200H88.5V208.24H96.74V200Z" fill="#464646"/>
<path d="M112.74 200H104.5V208.24H112.74V200Z" fill="#464646"/>
<path d="M128.74 200H120.5V208.24H128.74V200Z" fill="#464646"/>
<path d="M152.74 200H144.5V208.24H152.74V200Z" fill="#464646"/>
<path d="M160.74 200H152.5V208.24H160.74V200Z" fill="#464646"/>
<path d="M184.74 200H176.5V208.24H184.74V200Z" fill="#464646"/>
<path d="M200.74 200H192.5V208.24H200.74V200Z" fill="#464646"/>
<path d="M224.74 200H216.5V208.24H224.74V200Z" fill="#464646"/>
<path d="M232.74 200H224.5V208.24H232.74V200Z" fill="#464646"/>
<path d="M240.74 200H232.5V208.24H240.74V200Z" fill="#464646"/>
<path d="M248.74 200H240.5V208.24H248.74V200Z" fill="#464646"/>
<path d="M264.74 200H256.5V208.24H264.74V200Z" fill="#464646"/>
<path d="M280.74 200H272.5V208.24H280.74V200Z" fill="#464646"/>
<path d="M288.74 200H280.5V208.24H288.74V200Z" fill="#464646"/>
<path d="M304.74 200H296.5V208.24H304.74V200Z" fill="#464646"/>
<path d="M320.74 200H312.5V208.24H320.74V200Z" fill="#464646"/>
<path d="M336.74 200H328.5V208.24H336.74V200Z" fill="#464646"/>
<path d="M24.74 208H16.5V216.24H24.74V208Z" fill="#464646"/>
<path d="M64.74 208H56.5V216.24H64.74V208Z" fill="#464646"/>
<path d="M72.74 208H64.5V216.24H72.74V208Z" fill="#464646"/>
<path d="M80.74 208H72.5V216.24H80.74V208Z" fill="#464646"/>
<path d="M96.74 208H88.5V216.24H96.74V208Z" fill="#464646"/>
<path d="M104.74 208H96.5V216.24H104.74V208Z" fill="#464646"/>
<path d="M168.74 208H160.5V216.24H168.74V208Z" fill="#464646"/>
<path d="M184.74 208H176.5V216.24H184.74V208Z" fill="#464646"/>
<path d="M208.74 208H200.5V216.24H208.74V208Z" fill="#464646"/>
<path d="M216.74 208H208.5V216.24H216.74V208Z" fill="#464646"/>
<path d="M224.74 208H216.5V216.24H224.74V208Z" fill="#464646"/>
<path d="M232.74 208H224.5V216.24H232.74V208Z" fill="#464646"/>
<path d="M240.74 208H232.5V216.24H240.74V208Z" fill="#464646"/>
<path d="M256.74 208H248.5V216.24H256.74V208Z" fill="#464646"/>
<path d="M328.74 208H320.5V216.24H328.74V208Z" fill="#464646"/>
<path d="M24.74 216H16.5V224.24H24.74V216Z" fill="#464646"/>
<path d="M32.74 216H24.5V224.24H32.74V216Z" fill="#464646"/>
<path d="M40.74 216H32.5V224.24H40.74V216Z" fill="#464646"/>
<path d="M48.74 216H40.5V224.24H48.74V216Z" fill="#464646"/>
<path d="M80.74 216H72.5V224.24H80.74V216Z" fill="#464646"/>
<path d="M96.74 216H88.5V224.24H96.74V216Z" fill="#464646"/>
<path d="M112.74 216H104.5V224.24H112.74V216Z" fill="#464646"/>
<path d="M128.74 216H120.5V224.24H128.74V216Z" fill="#464646"/>
<path d="M136.74 216H128.5V224.24H136.74V216Z" fill="#464646"/>
<path d="M144.74 216H136.5V224.24H144.74V216Z" fill="#464646"/>
<path d="M176.74 216H168.5V224.24H176.74V216Z" fill="#464646"/>
<path d="M200.74 216H192.5V224.24H200.74V216Z" fill="#464646"/>
<path d="M224.74 216H216.5V224.24H224.74V216Z" fill="#464646"/>
<path d="M232.74 216H224.5V224.24H232.74V216Z" fill="#464646"/>
<path d="M248.74 216H240.5V224.24H248.74V216Z" fill="#464646"/>
<path d="M264.74 216H256.5V224.24H264.74V216Z" fill="#464646"/>
<path d="M272.74 216H264.5V224.24H272.74V216Z" fill="#464646"/>
<path d="M288.74 216H280.5V224.24H288.74V216Z" fill="#464646"/>
<path d="M296.74 216H288.5V224.24H296.74V216Z" fill="#464646"/>
<path d="M304.74 216H296.5V224.24H304.74V216Z" fill="#464646"/>
<path d="M312.74 216H304.5V224.24H312.74V216Z" fill="#464646"/>
<path d="M320.74 216H312.5V224.24H320.74V216Z" fill="#464646"/>
<path d="M344.74 216H336.5V224.24H344.74V216Z" fill="#464646"/>
<path d="M40.74 224H32.5V232.24H40.74V224Z" fill="#464646"/>
<path d="M48.74 224H40.5V232.24H48.74V224Z" fill="#464646"/>
<path d="M64.74 224H56.5V232.24H64.74V224Z" fill="#464646"/>
<path d="M72.74 224H64.5V232.24H72.74V224Z" fill="#464646"/>
<path d="M88.74 224H80.5V232.24H88.74V224Z" fill="#464646"/>
<path d="M96.74 224H88.5V232.24H96.74V224Z" fill="#464646"/>
<path d="M112.74 224H104.5V232.24H112.74V224Z" fill="#464646"/>
<path d="M128.74 224H120.5V232.24H128.74V224Z" fill="#464646"/>
<path d="M144.74 224H136.5V232.24H144.74V224Z" fill="#464646"/>
<path d="M152.74 224H144.5V232.24H152.74V224Z" fill="#464646"/>
<path d="M168.74 224H160.5V232.24H168.74V224Z" fill="#464646"/>
<path d="M176.74 224H168.5V232.24H176.74V224Z" fill="#464646"/>
<path d="M200.74 224H192.5V232.24H200.74V224Z" fill="#464646"/>
<path d="M208.74 224H200.5V232.24H208.74V224Z" fill="#464646"/>
<path d="M224.74 224H216.5V232.24H224.74V224Z" fill="#464646"/>
<path d="M240.74 224H232.5V232.24H240.74V224Z" fill="#464646"/>
<path d="M248.74 224H240.5V232.24H248.74V224Z" fill="#464646"/>
<path d="M280.74 224H272.5V232.24H280.74V224Z" fill="#464646"/>
<path d="M288.74 224H280.5V232.24H288.74V224Z" fill="#464646"/>
<path d="M296.74 224H288.5V232.24H296.74V224Z" fill="#464646"/>
<path d="M304.74 224H296.5V232.24H304.74V224Z" fill="#464646"/>
<path d="M312.74 224H304.5V232.24H312.74V224Z" fill="#464646"/>
<path d="M32.74 232H24.5V240.24H32.74V232Z" fill="#464646"/>
<path d="M40.74 232H32.5V240.24H40.74V232Z" fill="#464646"/>
<path d="M64.74 232H56.5V240.24H64.74V232Z" fill="#464646"/>
<path d="M80.74 232H72.5V240.24H80.74V232Z" fill="#464646"/>
<path d="M88.74 232H80.5V240.24H88.74V232Z" fill="#464646"/>
<path d="M96.74 232H88.5V240.24H96.74V232Z" fill="#464646"/>
<path d="M112.74 232H104.5V240.24H112.74V232Z" fill="#464646"/>
<path d="M128.74 232H120.5V240.24H128.74V232Z" fill="#464646"/>
<path d="M176.74 232H168.5V240.24H176.74V232Z" fill="#464646"/>
<path d="M184.74 232H176.5V240.24H184.74V232Z" fill="#464646"/>
<path d="M192.74 232H184.5V240.24H192.74V232Z" fill="#464646"/>
<path d="M208.74 232H200.5V240.24H208.74V232Z" fill="#464646"/>
<path d="M224.74 232H216.5V240.24H224.74V232Z" fill="#464646"/>
<path d="M232.74 232H224.5V240.24H232.74V232Z" fill="#464646"/>
<path d="M240.74 232H232.5V240.24H240.74V232Z" fill="#464646"/>
<path d="M248.74 232H240.5V240.24H248.74V232Z" fill="#464646"/>
<path d="M272.74 232H264.5V240.24H272.74V232Z" fill="#464646"/>
<path d="M280.74 232H272.5V240.24H280.74V232Z" fill="#464646"/>
<path d="M304.74 232H296.5V240.24H304.74V232Z" fill="#464646"/>
<path d="M312.74 232H304.5V240.24H312.74V232Z" fill="#464646"/>
<path d="M320.74 232H312.5V240.24H320.74V232Z" fill="#464646"/>
<path d="M344.74 232H336.5V240.24H344.74V232Z" fill="#464646"/>
<path d="M40.74 240H32.5V248.24H40.74V240Z" fill="#464646"/>
<path d="M56.74 240H48.5V248.24H56.74V240Z" fill="#464646"/>
<path d="M64.74 240H56.5V248.24H64.74V240Z" fill="#464646"/>
<path d="M72.74 240H64.5V248.24H72.74V240Z" fill="#464646"/>
<path d="M80.74 240H72.5V248.24H80.74V240Z" fill="#464646"/>
<path d="M112.74 240H104.5V248.24H112.74V240Z" fill="#464646"/>
<path d="M128.74 240H120.5V248.24H128.74V240Z" fill="#464646"/>
<path d="M136.74 240H128.5V248.24H136.74V240Z" fill="#464646"/>
<path d="M152.74 240H144.5V248.24H152.74V240Z" fill="#464646"/>
<path d="M168.74 240H160.5V248.24H168.74V240Z" fill="#464646"/>
<path d="M176.74 240H168.5V248.24H176.74V240Z" fill="#464646"/>
<path d="M192.74 240H184.5V248.24H192.74V240Z" fill="#464646"/>
<path d="M208.74 240H200.5V248.24H208.74V240Z" fill="#464646"/>
<path d="M224.74 240H216.5V248.24H224.74V240Z" fill="#464646"/>
<path d="M240.74 240H232.5V248.24H240.74V240Z" fill="#464646"/>
<path d="M256.74 240H248.5V248.24H256.74V240Z" fill="#464646"/>
<path d="M272.74 240H264.5V248.24H272.74V240Z" fill="#464646"/>
<path d="M280.74 240H272.5V248.24H280.74V240Z" fill="#464646"/>
<path d="M320.74 240H312.5V248.24H320.74V240Z" fill="#464646"/>
<path d="M328.74 240H320.5V248.24H328.74V240Z" fill="#464646"/>
<path d="M336.74 240H328.5V248.24H336.74V240Z" fill="#464646"/>
<path d="M24.74 248H16.5V256.24H24.74V248Z" fill="#464646"/>
<path d="M40.74 248H32.5V256.24H40.74V248Z" fill="#464646"/>
<path d="M48.74 248H40.5V256.24H48.74V248Z" fill="#464646"/>
<path d="M56.74 248H48.5V256.24H56.74V248Z" fill="#464646"/>
<path d="M64.74 248H56.5V256.24H64.74V248Z" fill="#464646"/>
<path d="M80.74 248H72.5V256.24H80.74V248Z" fill="#464646"/>
<path d="M88.74 248H80.5V256.24H88.74V248Z" fill="#464646"/>
<path d="M96.74 248H88.5V256.24H96.74V248Z" fill="#464646"/>
<path d="M104.74 248H96.5V256.24H104.74V248Z" fill="#464646"/>
<path d="M112.74 248H104.5V256.24H112.74V248Z" fill="#464646"/>
<path d="M120.74 248H112.5V256.24H120.74V248Z" fill="#464646"/>
<path d="M136.74 248H128.5V256.24H136.74V248Z" fill="#464646"/>
<path d="M144.74 248H136.5V256.24H144.74V248Z" fill="#464646"/>
<path d="M152.74 248H144.5V256.24H152.74V248Z" fill="#464646"/>
<path d="M160.74 248H152.5V256.24H160.74V248Z" fill="#464646"/>
<path d="M168.74 248H160.5V256.24H168.74V248Z" fill="#464646"/>
<path d="M240.74 248H232.5V256.24H240.74V248Z" fill="#464646"/>
<path d="M264.74 248H256.5V256.24H264.74V248Z" fill="#464646"/>
<path d="M272.74 248H264.5V256.24H272.74V248Z" fill="#464646"/>
<path d="M288.74 248H280.5V256.24H288.74V248Z" fill="#464646"/>
<path d="M296.74 248H288.5V256.24H296.74V248Z" fill="#464646"/>
<path d="M304.74 248H296.5V256.24H304.74V248Z" fill="#464646"/>
<path d="M312.74 248H304.5V256.24H312.74V248Z" fill="#464646"/>
<path d="M336.74 248H328.5V256.24H336.74V248Z" fill="#464646"/>
<path d="M344.74 248H336.5V256.24H344.74V248Z" fill="#464646"/>
<path d="M24.74 256H16.5V264.24H24.74V256Z" fill="#464646"/>
<path d="M72.74 256H64.5V264.24H72.74V256Z" fill="#464646"/>
<path d="M88.74 256H80.5V264.24H88.74V256Z" fill="#464646"/>
<path d="M96.74 256H88.5V264.24H96.74V256Z" fill="#464646"/>
<path d="M112.74 256H104.5V264.24H112.74V256Z" fill="#464646"/>
<path d="M120.74 256H112.5V264.24H120.74V256Z" fill="#464646"/>
<path d="M128.74 256H120.5V264.24H128.74V256Z" fill="#464646"/>
<path d="M136.74 256H128.5V264.24H136.74V256Z" fill="#464646"/>
<path d="M176.74 256H168.5V264.24H176.74V256Z" fill="#464646"/>
<path d="M208.74 256H200.5V264.24H208.74V256Z" fill="#464646"/>
<path d="M216.74 256H208.5V264.24H216.74V256Z" fill="#464646"/>
<path d="M224.74 256H216.5V264.24H224.74V256Z" fill="#464646"/>
<path d="M232.74 256H224.5V264.24H232.74V256Z" fill="#464646"/>
<path d="M240.74 256H232.5V264.24H240.74V256Z" fill="#464646"/>
<path d="M288.74 256H280.5V264.24H288.74V256Z" fill="#464646"/>
<path d="M296.74 256H288.5V264.24H296.74V256Z" fill="#464646"/>
<path d="M304.74 256H296.5V264.24H304.74V256Z" fill="#464646"/>
<path d="M312.74 256H304.5V264.24H312.74V256Z" fill="#464646"/>
<path d="M328.74 256H320.5V264.24H328.74V256Z" fill="#464646"/>
<path d="M24.74 264H16.5V272.24H24.74V264Z" fill="#464646"/>
<path d="M40.74 264H32.5V272.24H40.74V264Z" fill="#464646"/>
<path d="M48.74 264H40.5V272.24H48.74V264Z" fill="#464646"/>
<path d="M64.74 264H56.5V272.24H64.74V264Z" fill="#464646"/>
<path d="M80.74 264H72.5V272.24H80.74V264Z" fill="#464646"/>
<path d="M88.74 264H80.5V272.24H88.74V264Z" fill="#464646"/>
<path d="M104.74 264H96.5V272.24H104.74V264Z" fill="#464646"/>
<path d="M144.74 264H136.5V272.24H144.74V264Z" fill="#464646"/>
<path d="M152.74 264H144.5V272.24H152.74V264Z" fill="#464646"/>
<path d="M168.74 264H160.5V272.24H168.74V264Z" fill="#464646"/>
<path d="M176.74 264H168.5V272.24H176.74V264Z" fill="#464646"/>
<path d="M192.74 264H184.5V272.24H192.74V264Z" fill="#464646"/>
<path d="M224.74 264H216.5V272.24H224.74V264Z" fill="#464646"/>
<path d="M232.74 264H224.5V272.24H232.74V264Z" fill="#464646"/>
<path d="M240.74 264H232.5V272.24H240.74V264Z" fill="#464646"/>
<path d="M264.74 264H256.5V272.24H264.74V264Z" fill="#464646"/>
<path d="M280.74 264H272.5V272.24H280.74V264Z" fill="#464646"/>
<path d="M288.74 264H280.5V272.24H288.74V264Z" fill="#464646"/>
<path d="M296.74 264H288.5V272.24H296.74V264Z" fill="#464646"/>
<path d="M304.74 264H296.5V272.24H304.74V264Z" fill="#464646"/>
<path d="M312.74 264H304.5V272.24H312.74V264Z" fill="#464646"/>
<path d="M320.74 264H312.5V272.24H320.74V264Z" fill="#464646"/>
<path d="M24.74 272H16.5V280.24H24.74V272Z" fill="#464646"/>
<path d="M40.74 272H32.5V280.24H40.74V272Z" fill="#464646"/>
<path d="M72.74 272H64.5V280.24H72.74V272Z" fill="#464646"/>
<path d="M80.74 272H72.5V280.24H80.74V272Z" fill="#464646"/>
<path d="M88.74 272H80.5V280.24H88.74V272Z" fill="#464646"/>
<path d="M96.74 272H88.5V280.24H96.74V272Z" fill="#464646"/>
<path d="M104.74 272H96.5V280.24H104.74V272Z" fill="#464646"/>
<path d="M136.74 272H128.5V280.24H136.74V272Z" fill="#464646"/>
<path d="M152.74 272H144.5V280.24H152.74V272Z" fill="#464646"/>
<path d="M168.74 272H160.5V280.24H168.74V272Z" fill="#464646"/>
<path d="M176.74 272H168.5V280.24H176.74V272Z" fill="#464646"/>
<path d="M184.74 272H176.5V280.24H184.74V272Z" fill="#464646"/>
<path d="M192.74 272H184.5V280.24H192.74V272Z" fill="#464646"/>
<path d="M200.74 272H192.5V280.24H200.74V272Z" fill="#464646"/>
<path d="M216.74 272H208.5V280.24H216.74V272Z" fill="#464646"/>
<path d="M224.74 272H216.5V280.24H224.74V272Z" fill="#464646"/>
<path d="M240.74 272H232.5V280.24H240.74V272Z" fill="#464646"/>
<path d="M248.74 272H240.5V280.24H248.74V272Z" fill="#464646"/>
<path d="M256.74 272H248.5V280.24H256.74V272Z" fill="#464646"/>
<path d="M280.74 272H272.5V280.24H280.74V272Z" fill="#464646"/>
<path d="M288.74 272H280.5V280.24H288.74V272Z" fill="#464646"/>
<path d="M296.74 272H288.5V280.24H296.74V272Z" fill="#464646"/>
<path d="M304.74 272H296.5V280.24H304.74V272Z" fill="#464646"/>
<path d="M312.74 272H304.5V280.24H312.74V272Z" fill="#464646"/>
<path d="M328.74 272H320.5V280.24H328.74V272Z" fill="#464646"/>
<path d="M344.74 272H336.5V280.24H344.74V272Z" fill="#464646"/>
<path d="M88.74 280H80.5V288.24H88.74V280Z" fill="#464646"/>
<path d="M96.74 280H88.5V288.24H96.74V280Z" fill="#464646"/>
<path d="M112.74 280H104.5V288.24H112.74V280Z" fill="#464646"/>
<path d="M120.74 280H112.5V288.24H120.74V280Z" fill="#464646"/>
<path d="M152.74 280H144.5V288.24H152.74V280Z" fill="#464646"/>
<path d="M184.74 280H176.5V288.24H184.74V280Z" fill="#464646"/>
<path d="M208.74 280H200.5V288.24H208.74V280Z" fill="#464646"/>
<path d="M232.74 280H224.5V288.24H232.74V280Z" fill="#464646"/>
<path d="M248.74 280H240.5V288.24H248.74V280Z" fill="#464646"/>
<path d="M256.74 280H248.5V288.24H256.74V280Z" fill="#464646"/>
<path d="M264.74 280H256.5V288.24H264.74V280Z" fill="#464646"/>
<path d="M280.74 280H272.5V288.24H280.74V280Z" fill="#464646"/>
<path d="M312.74 280H304.5V288.24H312.74V280Z" fill="#464646"/>
<path d="M336.74 280H328.5V288.24H336.74V280Z" fill="#464646"/>
<path d="M344.74 280H336.5V288.24H344.74V280Z" fill="#464646"/>
<path d="M104.74 288H96.5V296.24H104.74V288Z" fill="#464646"/>
<path d="M144.74 288H136.5V296.24H144.74V288Z" fill="#464646"/>
<path d="M184.74 288H176.5V296.24H184.74V288Z" fill="#464646"/>
<path d="M200.74 288H192.5V296.24H200.74V288Z" fill="#464646"/>
<path d="M208.74 288H200.5V296.24H208.74V288Z" fill="#464646"/>
<path d="M224.74 288H216.5V296.24H224.74V288Z" fill="#464646"/>
<path d="M240.74 288H232.5V296.24H240.74V288Z" fill="#464646"/>
<path d="M248.74 288H240.5V296.24H248.74V288Z" fill="#464646"/>
<path d="M272.74 288H264.5V296.24H272.74V288Z" fill="#464646"/>
<path d="M280.74 288H272.5V296.24H280.74V288Z" fill="#464646"/>
<path d="M296.74 288H288.5V296.24H296.74V288Z" fill="#464646"/>
<path d="M312.74 288H304.5V296.24H312.74V288Z" fill="#464646"/>
<path d="M328.74 288H320.5V296.24H328.74V288Z" fill="#464646"/>
<path d="M96.74 296H88.5V304.24H96.74V296Z" fill="#464646"/>
<path d="M104.74 296H96.5V304.24H104.74V296Z" fill="#464646"/>
<path d="M112.74 296H104.5V304.24H112.74V296Z" fill="#464646"/>
<path d="M120.74 296H112.5V304.24H120.74V296Z" fill="#464646"/>
<path d="M128.74 296H120.5V304.24H128.74V296Z" fill="#464646"/>
<path d="M136.74 296H128.5V304.24H136.74V296Z" fill="#464646"/>
<path d="M160.74 296H152.5V304.24H160.74V296Z" fill="#464646"/>
<path d="M176.74 296H168.5V304.24H176.74V296Z" fill="#464646"/>
<path d="M200.74 296H192.5V304.24H200.74V296Z" fill="#464646"/>
<path d="M216.74 296H208.5V304.24H216.74V296Z" fill="#464646"/>
<path d="M224.74 296H216.5V304.24H224.74V296Z" fill="#464646"/>
<path d="M240.74 296H232.5V304.24H240.74V296Z" fill="#464646"/>
<path d="M264.74 296H256.5V304.24H264.74V296Z" fill="#464646"/>
<path d="M272.74 296H264.5V304.24H272.74V296Z" fill="#464646"/>
<path d="M280.74 296H272.5V304.24H280.74V296Z" fill="#464646"/>
<path d="M312.74 296H304.5V304.24H312.74V296Z" fill="#464646"/>
<path d="M320.74 296H312.5V304.24H320.74V296Z" fill="#464646"/>
<path d="M336.74 296H328.5V304.24H336.74V296Z" fill="#464646"/>
<path d="M344.74 296H336.5V304.24H344.74V296Z" fill="#464646"/>
<path d="M88.74 304H80.5V312.24H88.74V304Z" fill="#464646"/>
<path d="M112.74 304H104.5V312.24H112.74V304Z" fill="#464646"/>
<path d="M120.74 304H112.5V312.24H120.74V304Z" fill="#464646"/>
<path d="M152.74 304H144.5V312.24H152.74V304Z" fill="#464646"/>
<path d="M160.74 304H152.5V312.24H160.74V304Z" fill="#464646"/>
<path d="M184.74 304H176.5V312.24H184.74V304Z" fill="#464646"/>
<path d="M192.74 304H184.5V312.24H192.74V304Z" fill="#464646"/>
<path d="M200.74 304H192.5V312.24H200.74V304Z" fill="#464646"/>
<path d="M208.74 304H200.5V312.24H208.74V304Z" fill="#464646"/>
<path d="M216.74 304H208.5V312.24H216.74V304Z" fill="#464646"/>
<path d="M224.74 304H216.5V312.24H224.74V304Z" fill="#464646"/>
<path d="M232.74 304H224.5V312.24H232.74V304Z" fill="#464646"/>
<path d="M256.74 304H248.5V312.24H256.74V304Z" fill="#464646"/>
<path d="M264.74 304H256.5V312.24H264.74V304Z" fill="#464646"/>
<path d="M280.74 304H272.5V312.24H280.74V304Z" fill="#464646"/>
<path d="M288.74 304H280.5V312.24H288.74V304Z" fill="#464646"/>
<path d="M296.74 304H288.5V312.24H296.74V304Z" fill="#464646"/>
<path d="M304.74 304H296.5V312.24H304.74V304Z" fill="#464646"/>
<path d="M312.74 304H304.5V312.24H312.74V304Z" fill="#464646"/>
<path d="M328.74 304H320.5V312.24H328.74V304Z" fill="#464646"/>
<path d="M344.74 304H336.5V312.24H344.74V304Z" fill="#464646"/>
<path d="M88.74 312H80.5V320.24H88.74V312Z" fill="#464646"/>
<path d="M104.74 312H96.5V320.24H104.74V312Z" fill="#464646"/>
<path d="M128.74 312H120.5V320.24H128.74V312Z" fill="#464646"/>
<path d="M136.74 312H128.5V320.24H136.74V312Z" fill="#464646"/>
<path d="M144.74 312H136.5V320.24H144.74V312Z" fill="#464646"/>
<path d="M160.74 312H152.5V320.24H160.74V312Z" fill="#464646"/>
<path d="M168.74 312H160.5V320.24H168.74V312Z" fill="#464646"/>
<path d="M184.74 312H176.5V320.24H184.74V312Z" fill="#464646"/>
<path d="M192.74 312H184.5V320.24H192.74V312Z" fill="#464646"/>
<path d="M200.74 312H192.5V320.24H200.74V312Z" fill="#464646"/>
<path d="M208.74 312H200.5V320.24H208.74V312Z" fill="#464646"/>
<path d="M248.74 312H240.5V320.24H248.74V312Z" fill="#464646"/>
<path d="M256.74 312H248.5V320.24H256.74V312Z" fill="#464646"/>
<path d="M264.74 312H256.5V320.24H264.74V312Z" fill="#464646"/>
<path d="M272.74 312H264.5V320.24H272.74V312Z" fill="#464646"/>
<path d="M288.74 312H280.5V320.24H288.74V312Z" fill="#464646"/>
<path d="M304.74 312H296.5V320.24H304.74V312Z" fill="#464646"/>
<path d="M320.74 312H312.5V320.24H320.74V312Z" fill="#464646"/>
<path d="M328.74 312H320.5V320.24H328.74V312Z" fill="#464646"/>
<path d="M344.74 312H336.5V320.24H344.74V312Z" fill="#464646"/>
<path d="M88.74 320H80.5V328.24H88.74V320Z" fill="#464646"/>
<path d="M136.74 320H128.5V328.24H136.74V320Z" fill="#464646"/>
<path d="M144.74 320H136.5V328.24H144.74V320Z" fill="#464646"/>
<path d="M152.74 320H144.5V328.24H152.74V320Z" fill="#464646"/>
<path d="M160.74 320H152.5V328.24H160.74V320Z" fill="#464646"/>
<path d="M176.74 320H168.5V328.24H176.74V320Z" fill="#464646"/>
<path d="M184.74 320H176.5V328.24H184.74V320Z" fill="#464646"/>
<path d="M192.74 320H184.5V328.24H192.74V320Z" fill="#464646"/>
<path d="M200.74 320H192.5V328.24H200.74V320Z" fill="#464646"/>
<path d="M216.74 320H208.5V328.24H216.74V320Z" fill="#464646"/>
<path d="M240.74 320H232.5V328.24H240.74V320Z" fill="#464646"/>
<path d="M248.74 320H240.5V328.24H248.74V320Z" fill="#464646"/>
<path d="M264.74 320H256.5V328.24H264.74V320Z" fill="#464646"/>
<path d="M280.74 320H272.5V328.24H280.74V320Z" fill="#464646"/>
<path d="M288.74 320H280.5V328.24H288.74V320Z" fill="#464646"/>
<path d="M296.74 320H288.5V328.24H296.74V320Z" fill="#464646"/>
<path d="M304.74 320H296.5V328.24H304.74V320Z" fill="#464646"/>
<path d="M312.74 320H304.5V328.24H312.74V320Z" fill="#464646"/>
<path d="M320.74 320H312.5V328.24H320.74V320Z" fill="#464646"/>
<path d="M328.74 320H320.5V328.24H328.74V320Z" fill="#464646"/>
<path d="M336.74 320H328.5V328.24H336.74V320Z" fill="#464646"/>
<path d="M96.74 328H88.5V336.24H96.74V328Z" fill="#464646"/>
<path d="M112.74 328H104.5V336.24H112.74V328Z" fill="#464646"/>
<path d="M120.74 328H112.5V336.24H120.74V328Z" fill="#464646"/>
<path d="M128.74 328H120.5V336.24H128.74V328Z" fill="#464646"/>
<path d="M144.74 328H136.5V336.24H144.74V328Z" fill="#464646"/>
<path d="M152.74 328H144.5V336.24H152.74V328Z" fill="#464646"/>
<path d="M176.74 328H168.5V336.24H176.74V328Z" fill="#464646"/>
<path d="M184.74 328H176.5V336.24H184.74V328Z" fill="#464646"/>
<path d="M192.74 328H184.5V336.24H192.74V328Z" fill="#464646"/>
<path d="M208.74 328H200.5V336.24H208.74V328Z" fill="#464646"/>
<path d="M224.74 328H216.5V336.24H224.74V328Z" fill="#464646"/>
<path d="M240.74 328H232.5V336.24H240.74V328Z" fill="#464646"/>
<path d="M272.74 328H264.5V336.24H272.74V328Z" fill="#464646"/>
<path d="M280.74 328H272.5V336.24H280.74V328Z" fill="#464646"/>
<path d="M288.74 328H280.5V336.24H288.74V328Z" fill="#464646"/>
<path d="M312.74 328H304.5V336.24H312.74V328Z" fill="#464646"/>
<path d="M320.74 328H312.5V336.24H320.74V328Z" fill="#464646"/>
<path d="M336.74 328H328.5V336.24H336.74V328Z" fill="#464646"/>
<path d="M104.74 336H96.5V344.24H104.74V336Z" fill="#464646"/>
<path d="M120.74 336H112.5V344.24H120.74V336Z" fill="#464646"/>
<path d="M136.74 336H128.5V344.24H136.74V336Z" fill="#464646"/>
<path d="M144.74 336H136.5V344.24H144.74V336Z" fill="#464646"/>
<path d="M160.74 336H152.5V344.24H160.74V336Z" fill="#464646"/>
<path d="M168.74 336H160.5V344.24H168.74V336Z" fill="#464646"/>
<path d="M176.74 336H168.5V344.24H176.74V336Z" fill="#464646"/>
<path d="M192.74 336H184.5V344.24H192.74V336Z" fill="#464646"/>
<path d="M224.74 336H216.5V344.24H224.74V336Z" fill="#464646"/>
<path d="M256.74 336H248.5V344.24H256.74V336Z" fill="#464646"/>
<path d="M272.74 336H264.5V344.24H272.74V336Z" fill="#464646"/>
<path d="M288.74 336H280.5V344.24H288.74V336Z" fill="#464646"/>
<path d="M296.74 336H288.5V344.24H296.74V336Z" fill="#464646"/>
<path d="M304.74 336H296.5V344.24H304.74V336Z" fill="#464646"/>
<path d="M312.74 336H304.5V344.24H312.74V336Z" fill="#464646"/>
<path d="M328.74 336H320.5V344.24H328.74V336Z" fill="#464646"/>
<path d="M16.5 16V72H72.5V16H16.5ZM64.5 64H24.5V24H64.5V64Z" fill="#464646"/>
<path d="M288.5 16V72H344.5V16H288.5ZM336.5 64H296.5V24H336.5V64Z" fill="#464646"/>
<path d="M16.5 288V344H72.5V288H16.5ZM64.5 336H24.5V296H64.5V336Z" fill="#464646"/>
<path d="M56.5 32H32.5V56H56.5V32Z" fill="#464646"/>
<path d="M328.5 32H304.5V56H328.5V32Z" fill="#464646"/>
<path d="M56.5 304H32.5V328H56.5V304Z" fill="#464646"/>
</svg>
