<svg width="155" height="40" viewBox="0 0 155 40" fill="none" xmlns="http://www.w3.org/2000/svg">
<path d="M0 6.70878V13.4035L2.59649 16L5.19298 18.5965V11.8877V5.19299H11.8877H18.5965L16 2.5965L13.4035 5.72205e-06H6.70877H0V6.70878Z" fill="black"/>
<path d="M23.8597 2.5965L21.2632 5.19299H27.9018H34.5263V11.8877V18.5965L37.193 15.9298L39.8597 13.2632L39.8316 6.66667L39.7895 0.0701809L33.1228 0.0280762L26.4562 5.72205e-06L23.8597 2.5965Z" fill="black"/>
<path d="M34.5264 27.8316V34.5263H27.9299C24.3088 34.5263 21.3334 34.5684 21.3334 34.6386C21.3334 34.6947 22.4562 35.8597 23.8316 37.2351L26.3158 39.7193H33.0948H39.8597V33.0807V26.4561L37.193 23.7895L34.5264 21.1228V27.8316Z" fill="black"/>
<path d="M2.56842 23.8596L0 26.414V33.0667V39.7193H6.70877H13.4035L16 37.1228L18.5965 34.5263H11.8877H5.19298L5.16491 27.9158L5.12281 21.3053L2.56842 23.8596Z" fill="black"/>
<path d="M51.9298 31.7754V39.7193H53.614H55.2982V36.9123V34.1053H57.7263C60.5193 34.1053 61.4316 33.9368 62.5544 33.193C63.3824 32.6456 63.8596 32.0702 64.3088 31.0737C64.5754 30.5123 64.6316 30.1333 64.6316 28.9825C64.6316 27.6772 64.6035 27.5088 64.1684 26.6386C63.621 25.5158 62.7509 24.7018 61.6281 24.2526C60.8842 23.9439 60.6316 23.9298 56.393 23.8877L51.9298 23.8456V31.7754ZM60.1824 27.1579C61.5579 27.986 61.5298 30.0632 60.1263 30.793C59.6631 31.0456 59.2702 31.0877 57.4456 31.1298L55.2982 31.186V28.9825V26.7789L57.5158 26.8351C59.4245 26.8772 59.7895 26.9193 60.1824 27.1579Z" fill="black"/>
<path d="M70.3158 28.1825C68.1684 28.7439 66.7509 30.1895 66.1755 32.3789C65.6281 34.4842 66.1755 36.6737 67.6632 38.2456C68.7719 39.4246 70.2035 39.986 72.0702 40C75.2281 40 77.5298 38.0772 78.0632 34.9754C78.2737 33.7544 78.0772 32.3789 77.5439 31.2561C76.3088 28.6456 73.3474 27.3965 70.3158 28.1825ZM72.7018 30.7509C74.0491 31.0596 74.9474 32.2947 74.9474 33.8807C74.9474 35.0456 74.6948 35.7614 74.0351 36.4351C72.9404 37.586 71.2983 37.614 70.1193 36.5193C69.5018 35.9298 69.193 35.1439 69.193 34.0912C69.193 32.3649 69.8948 31.214 71.1719 30.807C71.9298 30.5684 71.9298 30.5684 72.7018 30.7509Z" fill="black"/>
<path d="M84.7719 28.0842C83.0175 28.4211 81.207 29.9088 80.5754 31.5228C80.1123 32.6737 80.014 34.5123 80.3509 35.7474C80.8281 37.5018 82.0912 38.9053 83.7895 39.579C85.2912 40.1825 87.6491 40.0983 89.0245 39.4105C89.6702 39.0877 90.6666 38.2035 90.6666 37.9649C90.6666 37.8667 90.2456 37.4035 89.7263 36.9404L88.7859 36.0983L88.2666 36.5614C87.7474 37.0386 86.9895 37.3333 86.3158 37.3333C85.0105 37.3333 83.6772 36.2526 83.3684 34.9474C82.7509 32.379 84.6175 30.2316 87.0316 30.7509C87.5088 30.8491 87.9298 31.0737 88.2807 31.3965L88.814 31.8737L89.7403 31.0035C90.2456 30.5263 90.6666 30.0632 90.6666 29.9649C90.6666 29.7123 89.7824 28.9684 89.0105 28.5754C87.8175 27.9719 86.2596 27.7895 84.7719 28.0842Z" fill="black"/>
<path d="M107.719 28.1123C104.196 29.0105 102.358 32.7298 103.635 36.3509C104.126 37.7263 105.446 39.0316 106.905 39.5789C108.926 40.3509 112.267 39.9579 113.656 38.7789L114.119 38.3859L113.474 37.4596L112.828 36.5193L111.846 37.0245C110.961 37.4737 110.737 37.5298 109.768 37.5438C108.884 37.5438 108.575 37.4737 108 37.1789C107.312 36.828 106.695 36.0561 106.456 35.2561L106.372 34.9473H110.681H114.989L114.905 33.7824C114.807 32.3087 114.512 31.3824 113.853 30.3859C112.828 28.8702 111.396 28.0842 109.474 27.9859C108.884 27.9579 108.112 28.014 107.719 28.1123ZM109.895 30.4702C110.232 30.5403 110.737 30.7789 110.989 30.9754C111.425 31.3123 111.986 32.2526 112 32.6596C112 32.8 111.34 32.8421 109.179 32.8421H106.358L106.456 32.4491C106.695 31.4807 107.481 30.6947 108.435 30.4702C109.165 30.3017 109.165 30.3017 109.895 30.4702Z" fill="black"/>
<path d="M92.6316 29.5439V30.8772H94.2456H95.8597V35.2982V39.7193H97.3333H98.807V35.2982V30.8772H100.421H102.035V29.5439V28.2105H97.3333H92.6316V29.5439Z" fill="black"/>
<path d="M115.93 28.2947C115.93 28.3368 116.758 29.5579 117.754 31.0175C118.765 32.4632 119.579 33.7263 119.579 33.8246C119.579 33.9228 118.891 34.9754 118.063 36.1965C117.221 37.4035 116.337 38.6807 116.084 39.0456L115.635 39.7193H117.319H119.003L120.225 37.9228C120.898 36.9404 121.488 36.0842 121.558 36.014C121.614 35.9579 122.232 36.7579 122.933 37.8105L124.211 39.7193H125.909C127.214 39.7193 127.579 39.6772 127.495 39.5368C127.439 39.4526 126.975 38.7649 126.456 38.0351C125.937 37.3053 125.067 36.0561 124.519 35.2702L123.523 33.8386L125.418 31.1018C126.456 29.6 127.298 28.3368 127.298 28.2947C127.298 28.2526 126.554 28.2105 125.628 28.2105H123.972L122.807 29.9649C122.175 30.9333 121.642 31.7193 121.628 31.7193C121.6 31.7193 121.067 30.9333 120.421 29.9649L119.256 28.2105H117.6C116.674 28.2105 115.93 28.2526 115.93 28.2947Z" fill="black"/>
</svg>
